<mxfile host="app.diagrams.net" modified="2022-04-04T13:20:14.016Z" agent="5.0 (Macintosh; Intel Mac OS X 10_15_7) AppleWebKit/605.1.15 (KHTML, like Gecko) Version/15.4 Safari/605.1.15" etag="hM3EruS5TKcXhqEl1dwz" version="17.2.4" type="github">
  <diagram id="ylbsAzRMw23nqoPXdxoM" name="Page-1">
    <mxGraphModel dx="788" dy="518" grid="1" gridSize="10" guides="1" tooltips="1" connect="1" arrows="1" fold="1" page="1" pageScale="1" pageWidth="1169" pageHeight="827" math="0" shadow="0">
      <root>
        <mxCell id="0" />
        <mxCell id="1" parent="0" />
        <mxCell id="PBWLLHLStIqE05sqjgpN-2" value="" style="rounded=1;whiteSpace=wrap;html=1;align=left;strokeColor=#0066CC;" parent="1" vertex="1">
          <mxGeometry x="150" y="40" width="830" height="440" as="geometry" />
        </mxCell>
        <mxCell id="PBWLLHLStIqE05sqjgpN-27" value="" style="group" parent="1" vertex="1" connectable="0">
          <mxGeometry x="30" y="60" width="950" height="588.53" as="geometry" />
        </mxCell>
        <mxCell id="PBWLLHLStIqE05sqjgpN-52" value="" style="group" parent="PBWLLHLStIqE05sqjgpN-27" vertex="1" connectable="0">
          <mxGeometry x="763.18" y="30" width="186.8181818181818" height="200" as="geometry" />
        </mxCell>
        <mxCell id="PBWLLHLStIqE05sqjgpN-50" value="" style="group" parent="PBWLLHLStIqE05sqjgpN-52" vertex="1" connectable="0">
          <mxGeometry y="21.95" width="170" height="178.05" as="geometry" />
        </mxCell>
        <mxCell id="PBWLLHLStIqE05sqjgpN-29" value="" style="rounded=1;whiteSpace=wrap;html=1;dashed=1;strokeWidth=2;strokeColor=#0066CC;" parent="PBWLLHLStIqE05sqjgpN-50" vertex="1">
          <mxGeometry width="170" height="158.05" as="geometry" />
        </mxCell>
        <mxCell id="PBWLLHLStIqE05sqjgpN-47" value="" style="shape=image;verticalLabelPosition=bottom;labelBackgroundColor=default;verticalAlign=top;aspect=fixed;imageAspect=0;image=data:image/png,iVBORw0KGgoAAAANSUhEUgAAAggAAAIICAYAAAAL/BZjAAAAAXNSR0IArs4c6QAAAERlWElmTU0AKgAAAAgAAYdpAAQAAAABAAAAGgAAAAAAA6ABAAMAAAABAAEAAKACAAQAAAABAAACCKADAAQAAAABAAACCAAAAADdmLHaAABAAElEQVR4Aey9CZRk11nn+b33Ys2I3JfKrF2l0lKlUmm3JK/CuG1j+ei4WcYYMG162BqMG7qhl5kDh24G+swAM0BDG3oYYMBmwDYGY8u2GkuybEu2LJXWKi0lqfaq3NfYl/fe/L8bkaXaK/aM5X+liIyMeO++e38vKu93v9Xy0YSNBEiABEiABEiABM4hYJ/zmi9JgARIgARIgARIwBCggMAvAgmQAAmQAAmQwEUEKCBchIRvkAAJkAAJkAAJUEDgd4AESIAESIAESOAiAhQQLkLCN0iABEiABEiABCgg8DtAAiRAAiRAAiRwEQEKCBch4RskQAIkQAIkQAIUEPgdIAESIAESIAESuIgABYSLkPANEiABEiABEiABCgj8DpAACZAACZAACVxEgALCRUj4BgmQAAmQAAmQAAUEfgdIgARIgARIgAQuIkAB4SIkfIMESIAESIAESIACAr8DJEACJEACJEACFxGggHAREr5BAiRAAiRAAiRAAYHfARIgARIgARIggYsIUEC4CAnfIAESIAESIAESoIDA7wAJkAAJkAAJkMBFBCggXISEb5AACZAACZAACVBA4HeABEiABEiABEjgIgIUEC5CwjdIgARIgARIgAQoIPA7QAIkQAIkQAIkcBEBCggXIeEbJEACJEACJEACFBD4HSABEiABEiABEriIAAWEi5DwDRIgARIgARIgAQoI/A6QAAmQAAmQAAlcRIACwkVI+AYJkAAJkAAJkECACEiABHqcgOuK7/vi5vJSWF4VC69z03Pie5648/PiLifEsgTHeAaUMzQkYtniDPaL3R8TKxiQ4Miw+Sw0NiJ2MFgCinPYSIAEOpcABYTOvXccOQk0hIAKB77nSmFtTdZeeV0EgsHy158QL1+QxDcPSOq7h8XCf75kcD1bYnfcZISCvpt2S2jXNgnEozJ4281mLMGBfpFQWUBoyOjYCQmQwEYRoICwUeR5XRLYCAIqDOChWoJiGgs+fnqJpHjQHhRX18RbWRVxcUyhKH6xKFY4KMFIHIs+1AH5EEZsix2BAKBaAg/H5XLi2ZYUl1bMbPJnZiXQFxUJh8SOhnG4hZ/4Hc1SNQQbCZBAxxDA3wn8hWAjARLoCQIeFvTCWkokm5NTn/mC+PmiJB57SjKHjooVsMWHcACpAQIA9g42XJSC9kUL+9k/GeZYmB08LPy5guFnhwIQLDzpv+926X/bHUa7MPHA+4yJwolEYJmg21NPfNE4ya4gQA1CV9xGToIEKiNgBwKii7gHvwPP9SAQ4GcmK8W5lFgRBwt4aZdvQWmgu3/LgdYAgsN5DedpUy2D6GvVJKzmzHte0BE/De0DBBD1WdDth22EDfRF4cAw4hMJdAoBahA65U5xnCRQB4Hlx5+WzMysFI+flsQTB4yTYWZxxZgb1AnRS8HcUBYOzGUsB7+XzQIXmgbKSsfSD0gAKi/4bnl0Kkx4EhiIiwN/BBsaiOjUuB4gIw+8VwKbxiQyOSF9u7aXj+cPEiCBdiVADUK73hmOiwQaSCAzvyCJ149J/tBhWfi7R7D2h8SZQuSB+gjEoPpXfwE1Lay3kpJg/bfzf5YFhtIPaBxUJljXDuh5jiOF+VXJvzpnzksWXhav4Enk5hsl7NgSQPQDGwmQQPsToIDQ/veIIySBmgh4UPMnnnremBLSL7wshRPTcCZck2D/iEgfTA1RmA90YceirWaCutq5AgW6UudGa+RNp0Qb5ob0q0elsLAk3tw8HCNT4iDaIX4rIiLWhYu6BsCTSYAEGk2AAkKjibI/EmgTAi4W4SO/+9+lmIFj4pEZ8c4gx8FIVJydEBC01SsUlHq5+BnCggVfBKgLSuYHHIG0CbL46YfFhSkjcst2iey/TkIjQ7J3/41vah8u7onvkAAJbCABCggbCJ+XJoFmEPARsuim4Xi4hgRHUPfb+ggjuiAewsLdAG1BpYM+V6ugQgOub0Mo0bFoXgUVUIrLa2KF8H4siigK/jmqFC2PI4FWEKCTYiso8xok0AICmvlQ1fVLD31Djv/XPzev06+eECnCgVAXZeM0gIX5Tc1/C0Z1ziXWnRsRBimZglh9IYnt3Skexnftr/1r6b9zPxI2IUfDuc6S55zOlyRAAq0lQJG9tbx5NRJoGoF1W74KCsWVNbEDQSQyQn4CLMwWBASTjKBpV6+gYxVQoMCQPMIiISCoU2RhNYlwSQgLZamFwkEFHHkICbSIADUILQLNy5BAswnM/8NDkjl1xjgDLj38HZgWNN8BchWoet9RzcFGqQ4umLlmavSQpRHjsYIhU/Nh9ANvl/DkuMT33Sij73vXBSfwVxIggY0gQA3CRlDnNUmgCQTWDr4ia8+9jEiFVfHWMuIH4HsQj5R27U24Xs1dQlixNFUzBAVXszrCrLDy9KGSlgORDRQQaibLE0mgoQQoIDQUJzsjgdYS0IyIGjqozUXiI3clAft+Do5/8DmAc2LbtrIDowUhRk0NFhwrNatjYWZBUlowCqGXsV07SyGYbTsJDowEupsABYTuvr+cXZcT0FwHy08/bxwPE8+8JMlvvCzByUGxx5ErGTvztm5qYtBcDGiFUwviLeZlGe/lkTMhiMRNu375X4kThQaEjQRIYEMIUEDYEOy8KAk0hgCciLC6lgolGZu+4J90I6IAzsoWZ19cYsDq13CJt2t5S8ccQaVICAgaCmmKOCC6wdcIDGgTWAmyFqg8hwTqI0Anxfr48WwS2FAC+RNn5PkPf9xUZdTcB56WaIZpoaS6r3FoWJ/Vh0E1EKbsc0Hf0NDEUr0Fa0gzMEI20CJM6ksAnwLNbVBXMyGQEBLyefGWshLcNCA7fvuXoWGIysC+6yUyofUc2EiABFpJoM5/1a0cKq9FAiRwEQGsqcWFhLiZPJINlf0OGqBB8NbycGpApcdUAR4CiIQwdRpKAoI9rxoL7PaHoP6PYwA+HlEICtpqNWtAc6CaDz/nwskygSJPjqk4aWtuhyspMUpX5TMJkEATCFBAaAJUdkkCzSaQm1+U7PSsFKbnSrkOoDkQFGCytK5Clc3X3bvZweNEFFVS7cPET98vTiQiocG4BOIxs/CbUEkIAIUkIg9gW0i9cVxSqA7p54oozHTSXNUaREbEWmsroG+rLyiBrSgiFQnK4mceNNUmIz/7UaRlxnsYo4UoBzYSIIHWEKCA0BrOvAoJNJSAplFOHzspRQgKmmhI0ngM4hK6E6+2qXCg5gQIGd5KDqGRYem/+xZxhgalb9tmiYyPm4XaRmSELtKZ0zPmCv6jj0sumRY/lZb0maR5L9gPrUIAY6hVk4B0y/awhkB6svzFpxAGmZapD71fPHRp4b0aZlctDR5PAiRQJkABgV8FEuhAAl46I/k5eP6jlgEyImHHjUW+WuFgXWugyy5ehyeGpe/eHdAgoBj0yIg4/TFx1MdAj8PDxwKNF2KjdoK26OZJ8W6+Xrwk/BUSafNeDmGKXjILZQbMHSaE0bxd3VNZuLAHcB3kSsgtLkrmtaMSgD9CZOfW6vri0SRAAjUToIBQMzqeSAIbRyAP1f7iVx6DJwAWdy2tDJt9tZ7+pQUfcgWcGv2CKwO33yzX/V+/Km6hKIG+y4cXBqFZ0Ba7dof5WYQGYfGJp83rk//L70j60GlxJgbFgqNhzZoE7S2IMMihoMx/40lZOXxEBvfvka0f+7C5Dp9IgASaT6B6g2Xzx8QrkAAJXJUAFs9qNQaX6lMVD/AZsMLwX8BPjYIQPLRoUsUNzozrWgbVGljqCxGCVqOaPq5wsbN/pMqaDHOtKxzPj0iABBpDgBqExnBkLyTQEgLrFRuLyJ6Y+s4r4sAp0I6W/xlXIzBgsXUXUuIvZmXnb/+0DLzjbgn0x8WOhKGRUGGhcmu/AyfGsbe/xczf+U+/iFLTGVl+6DGZ++MHEekQFWcLHAyrbZiLjWRJEhVJPvmSCX20PrgsyXvvgvDiSvz6XTBh8M9XtVh5PAlUQ4D/wqqhxWNJoE0IaFpib6mUUtmG538tzU8UUMcpJ4HBfglvnSrlT1AhoxpBAxdWzYPTh5UcLTA+KnaxIE44jODINQmsIE3CthHzWdUaBR0HBBXNi1BcWRIXfg6ehls2SDNRGhSfSYAELkeAAsLlyPB9EmhDAiZxEdT4HiIX/DweJotiFQKCOhvioYt69K6dCFHMS2hyQoIDSM2M9+pt6rioO3zv3fcYZ0dN3rTwxW+aEs/WMEIgNRKimgUex1rDYQnYI5KHQ+bC334JvgmOxHb8BJwoMWY2EiCBphGggNA0tOyYBBpPQAUE43sA4QDehMhbUEpeVNWV1GcAwkBwxyZEJiDgALt+NS80ooU3jZW6uet2sSc3Sf7UtMx9EvkMxEU+BQgycKjUSIhqmhVRn4agFJbWZP4fHxF7oE92/MxHq+mCx5IACdRAgAJCDdB4CglsGIGyBqDkqFejur28g7cRwujDl9Cv0qRQydzVh8HGoh6I9UnfPbuQY8GTInwTvHS+lMwJoZS1NGN1QLRlDiGeAThTOtB8sKBTLSR5DglcnQAFhKsz4hEk0DYEPGgQNLLRmBgE6ZDXoEWYqHx4PvIK+HkX6n/kPdi+2WgSHCzijW7hTeOij2IqJe6vftz4NZz+zf8mycdfRgjkkNhVhECqOURrP3j5orhzSCvdl5TpLzyEOg1hGX/PO6T/phsaPXz2RwIkAAIUEPg1IAESaC4BaD3ebJVHR7x5Dl+RAAlsBAEKCBtBndckgToImOJFlqro8c83WouqHkWRsGgXllZNnSUfFRSb1RxkPxxFCKVGRhR/ZlmGP7QgqedflqVPfUPskZA4k0Pms0qurxkerZGStmPhL//RZGyMDw1IBBEY6tcQHCwlcKqkLx5DAiRwdQIUEK7OiEeQQJsS0DDAWgSE0nQs+CL4kDbO3d83eqJqHggM9JtuHZgcHKSFtl87BpfFNfGXkMp5CgKC5lyoJLJBHRBQWlr9L3IvzaEPmBsQJSGanKlYg7NmoyfL/kigywhQQOiyG8rpdDcBU60RqZGNXV6dEXTBrKZhMTahhviZPXoKvgwo0JTQ6ozNb/Fd28WdhJCA0Mri/BIEE19Sz71uajzYfUiKVEUlSnscmoQlRxIvvy7y+a9IaGJMRt93X/MnwSuQQA8RoIDQQzebU+18Alo3waQzxmKKpb60+65iWiZDYhj/7KE2yBzETh6ZFD1UZGxFi+++xlzGiUSlqLkSkPho7dGD4qOCpLUL84mj/gOcKK/aoEmw4ppBMigrz74ia68dl8E79lFAuCo4HkAC1RGggFAdLx5NAhtLQE0KukCqoOCUijTVOiDVRlgRR1wUWyqsrKHgU8CEJdbaX6Xn2bhuMN4vLuYR2j4s/ibUftAciTlEV6hCpBJNglpWIEtY6gCJvA6aMEqLRmlTv4dqUkWbk/hEAiRwEQEKCBch4Rsk0L4EnHKVRQfOecHd42LHQljgUW4ZzZgfzApbyfixsCLJkl30ZfHJZySTSEh02xYZf+87Kzm5rmP6du2QKMwNxbWE5NXUgAV++UuPSuY7x8XeAr+EESRtuopPgh3Bny47KPmjM1I8kxIb01n89gHjnzD2trvOpn6ua6A8mQR6nAAFhB7/AnD6HUxAF9GrLKSVzs6v0pWh0n4veRyupeYRzQiJGZQeZh5wNKxpPp7RJDSkuuUlB8w3SaA3CTi/jtabU+esSaBzCeSXV6Xg5SW8eVyyr58oJz9CWkSNCKikYXG2UNPA6g9L/uS0pL79PPwRFsQZG5HMidMmyZH6OjSz2ajGGIM2YfDWvRg3Sixcu0kcVH/MvXQctRtgboggLfOVNCKQLtQsYqNWg4cohtSLL0vyqRdk5J1vETsOJ0aYH0rOnM2cBfsmge4lQA1C995bzqyLCVgoyeyMDIqfQZgfUg+XUi9XOWHNK4AoiPzReXHXViQ4Nij5RBJ7e115KxQ0qrzkeYfDjyK8ddK8FUDBKGctKfbamnjzGbFiHkpFY5G/WgikziEEASGbl/Szb6BcdUg8OECK+miofwIbCZBAzQQoINSMjieSwMYRCIwMSf+e67DrX5LFLKo6ZpGCGV79ZitezbCwhtrDfdhpw1kRtRLW/sc3jGahb/sW7MJjEhodhkNhrJoeazq2/4ZdEsKc0kP9kj89BwHFlsLJWQhAMB9ogacrOS6qWULDNxGdYQVtSTz7kmRPzUI7sV3C25BOmo0ESKAmAhQQasLGk0hgYwlEkHTIektECsdOiT+XRjEkCAkjWk4ZO/9q7Pg41h6Iigz2SX5mRaZ/7/9D7qU+id6yV5zhQRnad2NLBISB2282QJPQKKRn5kVgMlg+fFK8pazYm/ux8CNPQgXz8nHM4te/LT4KRU398/dTQNjYrymv3uEEKCB0+A3k8HuUgPoQ6AOqdHsqjhBBaBA0aZIuoqpZr8ZCoOdo2CB26bYdE3ssIt7qGvryxE2mxENiIw0btFD9sekN1wkN9kPgQYSFCi6qOcAcxVU7CtqVTB/6GcJAPaSOtvT4fE48REjo1Ewf+pONBEigYgIw09FQVzEtHkgC7UIA/2xVDijMLsrh3/p9k40w/fRBKZxZNnZ4VbfX1PTPAdZWb24Vu/eMbP1PH5PB7/seCfRFZaAFVRN9CCWa16CIJEqv/tpvG7NH7sXXJX98Qew+5H3QZEpXajr806tSXE3Irt/6WRn78R80AlO07OtwpVP5GQmQwPkEavwrcn4n/I0ESKDFBFR7gEuelxCoAhX8VUdpduFIW7RSgJygDpAQRLCL99VZsAWtVNoZmowQ/An02tAEmD1MFit/REWiqzc/BXOLoAw2nn3VsDSCy9UvyyNIoOsIMMyx624pJ9RLBDQUMbplUobu2I8Qv+ckd/CMWFEsrhoiWNl6ejEuFT7iQUQRxKGhmJfEY9+V/JETErpmm+TnFiSIJE1q2mhms9F/bPcOGXnrHXDAzErRKZjQRXdmyfgnaIjmJc0NKsdEIGBA4+H5rmReek3yp07L4L13NHO47JsEupIANQhdeVs5qV4hYMEZr+/Ga8VG2mXbCYibTYuVh0Of0QSAQo27ZysWNj4OmZdPIw0zsh1mcpJPpbCrhwmgVsGjmpuiAgKiNLQtTSFjJDJIeqjT4CegGQgjtBHju1xT4Ugf2ZkFKSygamQTy1lfbgx8nwS6gQAFhG64i5xDDxPAbh8hgbpqx2/bIwLVfH5pTbKvnjQhf1Y5NXPVgFSwQLf2YEQC3oi4iJJI/NM30Y0lkbFRCQwOmHTGTvQqPgFVX/jiE/pvvM6kkc4j7HEeGgQLuQ8074HvIwRSnRhVGDq3lc0hfq4gLh7FlVVJHzlujohsnYL5InTu0XxNAiRwGQI0MVwGDN8mgU4goJEMNrIJmqyHA3GJIiuhheRJK19+QmQFyYa0LPKFC2ilE4OMoDtxezgm7kpSlj73dVl7+FkZ+N47UHTRFwcLbaAFORK0bsPgnbeYnAzLz76ABFEDUpxZhlYjLwITy4XZEkvRHRAiMObi69B+qEJlEhkij5+W2DU7UMyp+UJNpYh5HAm0MwFqENr57nBsJFAFgXWrgo1wRCeIcMVRLIRlTUDNQgIsCqYSEnblto08C6j+6CH00UX1R28ElRjV5IB24SJt3mzCU3C4H+OBQKRJofTaqi0wgVj4eYEiwYRIxvEnDseYjJNqGkGExNmsk7UKTk2YF7skgXYkwDDHdrwrHBMJ1EBAY/41vfDqgYMy8+DXRJC/YPGvvyp+Gg5+IzHjvGjSMtfQty6qfhG5FtAsLLReIivbf/nHZeyHP4R12ZcIHCWb3jA/L5uDn0VOXv2V35L84grCOuekMLcCmQGahOgFpgMVHCAE+Kha6S+ldORy65c/KeGbroe/BgSe8OX9GJo+F16ABDqAADUIHXCTOEQSqISAev5r0xBBo3ovIjxRF8c0FvYRfHDhDtscXcWT8XVAEMFiEimekyWBQc0bZS1CFT3VdijmZ8dgMkGRJ9VcaDKlUt4EaBLKcz+vY6NSwaShRfEWkvgIwgLe0yJRKtSwkQAJXJkAfRCuzIefkkDHEbBhY4+hlkLfzu2SPnFMgjtGTRSCu5Q2O2p18qu6YWE1tn1V6QexyKIKpLuWkOR3Dkjm8BsSv2WfePB9cBBVodkMm9l0HFE4G468/U6YO5KSPTMrNrQHfgYRDsiboAWozppUVImAwfgBDd0Mw+zSJ8lXXzdhmpHNLdB6NBME+yaBJhOgBqHJgNk9CbSagOYp0EcRlRkD4yNSzGPhPLkg3loe2ZixXNaaZVHPRbN0B44CSskXjsryPz0rQ/ftl82fOMe23+wJI3Jh4C23mKusPv4UrB8lbYCfL5tAQhfkaFDhBs6W2hKvHsHrsERYxMnw4BMJXIkABYQr0eFnJNDBBDT8ceiOm8WDKn5lFSYBqNrVSuDCN8FUP6x1p69aBDQLqY8DowMwYxRk9eHHjfPf0H33SmC4lEhJBYlmtdJcoEnYvVPG738ncjUkZOXRA0bLgRALGBAw13VNgkZCosqjNndhxZgZCkj4VIQGRDUNgf54s4bJfkmgownQSbGjbx8HTwKVETjxe38qi995zhRhyhw8hgUT9nx16itrBSrr5fyj1iMYRHMNHFk1H+5/5A8luvd6hBKGJTCAiIMmN8+DYyZKVSe++7y8/D//r6hm6SDvQcr4R5iESZpx8ZxWPAzBoLAqW37hI7Lpp38EcpIl/RhvPRzO6Z4vSaCrCDRPxO8qTJwMCXQ4ASyUJv4/mzHaAxMe2IgpmTBK+CSMIKQSa7FqJ9xUGm4I2LGXVf9NXXzVUdEq1WsIDMTgwGiLm8hAQLj05DRM0yrA3ICxaUSESbR06UP5Lgn0PAFqEHr+K0AAvUDATZR21SuPfUde/89/aCIdClC3CxZSs9OuxXFxHRwW2/UQyACSNfnwedjyE98vUz/5IzBvFI0/xPqhDf+pQgi0AC4cJAtIrazjePUXfl0yR85AYEGsArItnmtOMVEdLsYEM0ggjsRS122XPZ/8TRxbMkE0fHzskAQ6mAA1CB188zh0EqiUgKMZD+E6oEWM3DR8ENC0UqIF38KGtHIIZB45CdwZJFLS3Xn4grwEDbnQBZ2UTSRakyIIh0zjX4F8CW46izwHuD4iLs5rEBrUN8PLFqSQXZXQJuRHoHBwHiL+QgLrBBjmuE6CP0mg2wlgrXSwaA7s2y3D99wmqSPHxIZ3v1+Eij4HVYJuxtWxr9qGRXo9BFLlBKsPeQrcAiopvm6qKfbvvxGFlkp1E/S45jSMAc6TmnY6PDYio997LxIt5iX92nET0miuCW1DaZwYJObsqRARwfGoUpk9dUZCw4MloaI5A2SvJNBxBKhB6LhbxgGTQA0EyutyCPkDRvFQlfzpv/mC5DXJUTKLksoFOC7CNl/29q/6CusLvyYzQrXF1MGjknjqsMT2XSObf+qHobqA7b8UjVh115WcoMIBpAOT82Dove/EGIIQgI7K3OceERmG4IDfTVMBCBoDHxoObxVlpBH9sPbaG0ZwiO2+RhxGNFSCm8f0CAEKCD1yozlNEjAE1GaPZdSCGn5g/x6YArKSOPCSZNOnTZXE9ciEmmsrqKCgWgT8Z6Ik4ESYROpnH06L8X03iKO1FFRTUWuIZQW30cfc/AKqTm6DMHT/3eIhP0LyudcxLlzYw/hUUsH1jaYDPApHT5levTQcOKHp8PWQJo6vginwEBJoCwJ0UmyL28BBkECLCWBhLKKEcyAYkiO/+rvYaX/NVIQswplRmx2D/X5dK1DD0IwzoGolkAshMBKHut+VvZ/8DYndfhNSM/stKbmsWhJ1Wky9eFgOfviXMCmILYhiwOpfeq1CAASC4klUhsy6cuvDn5TYW241WggbYZpsJNDrBKhB6PVvAOffuwSwu/fsotkt2xEIBFgvG950UYaQYMOSIRqSmIeDZNmhseHXuqBD1YZoAStkiCppMzAWTaB0YbPKmSVLmgcINZeq63DhSfydBHqAADUIPXCTOUUSuBQBTVGsSoL86TlTRyHx9Avyxv/2SaNJcFPIJVDA55o3oJYQSLMOq0of6zMEA/3Zt2e7CApJTXzgXTL5L+GXgHBIO4L8CU1qmm1R7RleOi2pl9/Aa0ve+He/Kcmnjog91gcTA7QEmnURmg4t6DT0vrvFHozL2LvukfEH3tukUbFbEugcAtQgdM694khJoKEE1iMKAqPDRuUeeOM4wgNzUP/DoQ+q91Kio/MzEVY8AAgeuiCr3X+9RkJuGvUgED3grqXgAuCIB6VFM5txXFRfCAghYThmalMtQTGVkmAcDo0xFU4gRJT9JgorayiRnUWiJ/gisJEACQjDHPklIIGeJ1AO/4MpoG/7hAzds1+SL79mcgWcG/a4LlBUhcssvmpmgKCBtdgvaGYmT/ILi5J5+XWJ7bkOQgQcBrXTOnwerjYmEwKJEE8HYZCD77gFJgdH0i8eN5e0oNXQS/vIAlmcXZLwxLBErtkuxdWESRdd07yvNiB+TgIdQIAahA64SRwiCTSTwHpRpfA1W2Ri6/eLh1TJZz7195KbhgnAweKpOZTVP6HGBVzrPmjTvAOScyXx3GuSPD4tfVPjMvHhB0w9BHNAk540IsEkikL/w/e/x0RUSDYvc3/9CASAuDhb1CHRltxrM9BuJCVz2xnJzM5juoiEUM1DjfNu0nTYLQm0jAAFhJah5oVIoL0JqM3eww5fnftie3YjM+Go5M7MiWZHNBqA9UQGtS6Y6vwH64X6NGiRJB8pj9OH4Q+ASIrI1klETvQ1HZDRVGB+WgZ74G17jUNi9uQclBvQokThTJmNwB8jIzmEPmpSKeu2fU0fEy9AAu1KgE6K7XpnOC4S2CgCcF7MzS2a5ELH/8sfyZk/+UdxRqKolFjaTxhhoY6xqdOin8ljQYZgcOMO45dww2/8G+lv4WKcnZmXzPSsFE6ekcMf+o9wtyiKfc0w5hiEwAL/BPhIRHdMyr7P/hE4NNlZog6WPJUEmkmgGYFNzRwv+yYBEmgFAQgJWqvBqNc1ikEzFTahwTvB/GccInHNlrVzrxXSP4MlM8jZ66uWRB+lQIizb/MFCfQSAWoQeuluc64kUCEBTTCkNvjMkROSn1+S9Kuvyxu/9kdIx4ywR9UkaH6D9UW0wj7PHqaLM2QP49dQwAuEUw58721IqDQkQ3fdIpt+6INnD23WC52fmlOKybSsfOtJI6Sc+r0/RwjkG+IMQlsCoSi4aUg2f+Kj4sMPY/x73irhzRPNGg77JYG2JEAfhLa8LRwUCWwsgXXHxdDkuNjDQ1JcS4g7l0ZoYFACo1Es7nX86VDBQjfsEBS8ZYQUQkDIwtfBXk1K/LqdLZm4zs/BQyMoQijWpBUeVVtQzCSQiRmhkQPwRUABq/zqKo5xTEbGlgyMFyGBNiLAMMc2uhkcCgm0HQEs4haKG+maHhgKy+DdN0nmjRPiLiXxPrQI66WS9YBamvaBkEPNeuwlNf8ATBvwUcgeOwkfgC3GibCWbis9R3MrqpEjAAdJDzkQYnt2ioN5Zl84bhwqNQujOiwO3LJXgmPDxoGTmRYrpcvjOp0ATQydfgc5fhJoAQGvkJcccgTo4n3oB/+VpA4ckcDUkNhDpciDmosbqfkfC7S/nEKIYQG7+REJXbdNgkMDsvcP/jPyFTQv0+KF2BLI/VDM5WT581+W478B50RBtkWJiis52f+F35PB77kXhZwsJFmKXXgqfyeBriRQh56wK3lwUiRAApcigBBIC7tpNQtEr90GT/8ASkbnpICsg2ZHXWsIpPoiqG4fvg12H36qtkIrKqICY+7MrBEQgiODTU3JfHa6uLYNVUZgsF+iN+yCH0JA8sdWxE45UlxaltypaQnE4yIUEM4i44vuJkANQnffX86OBBpLAAJC+vgZhAFaMv3HfyWnfvez4kxgpx0rVT80JodazQ0YqV8oiL+SEysekcH3vsWUXt7+Uz8iA60KgYSMkjl+UlYOvQr/iBU58vO/Ac1GRvrffzdKVQ8YZ8UtP/WjjWXK3kigTQlQg9CmN4bDIoF2JWBqHKjTAJqfx24fO/4aPRAuP0VoK7SYFP5vbdOJQMBZN5n4iLLwYWTQgfgePmz1eFo7e16NBM4jQA3CeTj4CwmQwNUIeFqyGSKBZkHMHT8l2ZOn5Ogv/iHMA1hYp+JvJlQqCxFX6++8z1UiQIVFlTg01FBrN4w+cJ9Ert0hfTu3ydj77jvv8Gb84qEmg4tsih5CIKc/8wUIBr4sfPlBST19SCZ+5H7Z+olPGIEhfuNuBDhckD+hGQNinySwQQSoQdgg8LwsCXQqATtUyiwY3oz0yLDXq99AMYdKiHDrC7jq2FdHU/NEQHfqvhROLYufKEju9Ix4GpbYD/t/C5pmTtSHhyqQoZ3bcUUIKpmUZBPHpLC4IC7KVGs6ajYS6HYCDHPs9jvM+ZFAkwjoIqn5A0ylRGw1Bu65SXIzi+IuIpeAahO0gmM9DX4ONvIuSDggXiKJytG+BIYHJYtCSmGUqG56uCE0BzrHEBI4eemkhManJDiySQrHNUXz6ZJfhGaZVJNEHX4X9SDiuSTQTALUIDSTLvsmgS4moLkDBI8gtAhb/t3Pmpkmnv8lyTx/TIKTI2L1IURR0zXX0rDg2gNIyISf2ZdPijedQCnmRfFRfVEgeMSu2yUB1ExoZtO6DIP795pLFDMPSOzeRUl+8yk59pt/ghwNW2XqYx+WQFirT2meiLr0Js2cBvsmgZoJUECoGR1PJAESUAJG3Y78CNqCE8MSvWmrST/k5QqlhXM9mZI5ooon7OA1HbOmd7aRvEgXYi+NsEoICO5qAsKHKw7yJFhNFhR0xDbmoJkXnf6YhLdMSWjzqBRXVsVDRcrQyLBIC/M1VEGQh5JAXQTopFgXPp5MAiRgCKhzIdrqi6+gOmNRlv7mi3Lytz8lgb6YONeMms/qffKR+thbSIkdD8nkJ34YoZURGb/vbRLfe329XV/1fGNOwRSTr7wms19+FBKDJTlUg/Syedn5kx+R+K03XbUPHkACnUaAGoROu2McLwm0I4Gyil0TKOniiXIG0CLkxU/DzFDOliiqEai1oU+BP4CfgoOg2v1VIDEahtao9tfDHtXvwcdY1O/Cg7OiRjxoOCYbCXQjAWoQuvGuck4ksEEEiikUdMKCmXzhZVl95gVxV9bkzO9/RvycK7aGQCI6oGZBAeGPfrFgBJDg6CAqK7ky9sC7JYo6CWGo+YffdmfTZ+1hfrmFZQgHeZl98GviIpPkyFvvlPDWKdRziEmEFR+bfg94gdYRoAahdax5JRLoegLGcRGzDMOJTysW5JGe2F1IQJtQEHscTo0R7Pht3f3XgEIjI4LwRYDjY+bASSRpykhq//Xijw21bBdvwykzqoWdoD1wEAapSaLcbE6Kq2t0VKzhlvKU9iZAAaG97w9HRwIdSUCdB8NjI6aq89hH3mWSDSVfOSrFRVSBjARKmoRaZlY2UzgTUWglglKYnoewcEhkcUVSZV+EPq0C2WTHRTVs9O+5zggKdiQsLhwynVojNmrhwHNIoAUEaGJoAWReggR6lYDa6Jefft5kWTzxK/+7rH7roCmbbE/BRFCvTwL8HtwTyzBjLEnfHdfLpo//mMG8+Qful0CLkirpBddeOoz6DWckumWTDOzf06u3mvPuQgLUIHThTeWUSKBdCJgQyPJgnKF+CAcjyG8Qgi8Bkiypc1+9IZARB5kb4QiJ0EcfIZCaN8FFZIEdhklD0yDX2n8VANVx0YEWwW6y1qKKIfFQEmgIAWoQGoKRnZAACVySAIQAH/kKsHLL0je+I/nVVUl8/UmZ/oPPI0tiRAI7RsyifslzK3lThQw0P++KvwTzRV9Qdv2f/0GCm8akb9d2icJ5sOkNpgUfxaU0q2QrBJKmz4cXIIEyAWoQ+FUgARJoHgHs6C0kGDINEQwWHPtMGKRkEbKoWZDwiQlhrDFUUMMrzfkIOVxCBMVa0IRYqibBPJo3szd7hpYCeR/f/J2vSKBLCFBA6JIbyWmQQLsT6Ef1Q63OGESVR08rPSISYOlzX0eyoaLYEyjyVGsIJHwZrBCyHKo2AsLC7J99xvg3TP3Yh8S+/91i4fMQajewkQAJVEeAAkJ1vHg0CZBAjQTWF+licodEb90j/lpSvJkHxZWc2MMIX6wrBBK7eK3dgPDJta88J0VZk5G33yVewRXLmDhqHDRPI4EeJkABoYdvPqdOAhtBwOmLSmzbVnGTSel/7z4TKpifX0YuAZgIkInRQvXGmppGRajf4xgKOi04kp2Zk7XHn5IgIhoiUxM1dcmTSKCXCdBJsZfvPudOAhtIQBMMTX/mS1jTPZn/738ryccPiY3Sys6WobpCIH2viPPhFQCThXo2DN6xV/b+2W9v4Ex5aRLoTAI1iuqdOVmOmgRIoH0ImBBIZEdEcQPRZEN2IGaiEEx+BI1OUEfDWhqEA2RmMvUStPKjRhb48HfQphqKmvutZSw8hwQ6mAA1CB188zh0EuhoAhACVIugbe4f/0nSx05K5rWjsvzZx8SKBsUZhamgViEBPpB+CtUfU1mJ3rBFJn/qfzLXmfjgeyQ4hCRNbCRAAlclQA3CVRHxABIggaYQwOKvKZm1WdFw6aHVEtdKu33zgUYP1lK3QU+GFkFQJEojJ1w8zFvlvAnmFz6RAAlckQAFhCvi4YckQAKtIDB02z6JX7dLEhPjkp+dh8RgS+bgMZEChIU+5E/QsMhqGmQDDX20x2JSTGRk6bNfxtmWjN1zhwT6EFKJ/oy5oZo+eSwJ9BgBCgg9dsM5XRJoRwKRbZvNsLSMcnDnVuz+fUk/85pIMo+ohiDyG9Qw6gCEAEREeMmsrH7laXRgif/rKe0aaZ5rVUvUMA6eQgIdSoACQofeOA6bBLqRgINSygM3XotaDUVJTzwvXjyHSAT8p7Ub1B9BnRqraSoNwFHRCaPUNM7NTM+KB3NGCDUhwgx9rIYkj+1BAhQQevCmc8ok0K4EYrt3ij5cFF5ae/oQzANJyR+fluLsighMBlY0VN3QNcuimhMmY+a82Ye+jkiJqEy8910UEKojyaN7kAAFhB686ZwyCTSawHrVRlOhEZ378CGwtEZCrQ3ZD22EJNoh+B80vCIjtArrzop4aepB1DpOnkcCXUyAYY5dfHM5NRJoBQE3mZLlAy+aSxUWlsRLp6X/lr0ysH9v7ZdHhcTsmRlT6On4f/lDmfvSN2AmQOKj8sJu8htU0/u6QJAtIGNjRnb8ykdl8y98DPkRUBtiaKCanngsCfQMAWoQeuZWc6Ik0BwCGg3guaUwQjUJFCEweJlSfoOarwjtQ3Bi1GRDtOFD4CZyJVMBzAw1tXI+BXcpI8WVVfFzeTg+wvOxDiVHTePgSSTQQQRq/NfWQTPkUEmABBpHADvxwvKa6S/9ymuSfuOYuKmUrHz7KbxnSd/Ne1HSOXx2p1/zhbGg28iJoLmSh9/7Tgnt3Ca5Iydl5s8frCuJkhVB1UcnKrn5JVl76gWEOgZl6O5bSw6QNQ+WJ5JAdxKggNCd95WzIoHmEMDCXYQDoWY4XH3hJZl/6BviZzKSeOhbuJ4lm//jZglOTpgSy/UOwAqU/jzF33Kb9N22X9a+9g05/fufFnutT5xhOB1WG9GgA9LQx1hA8tAiJA6/IaF+mBcgILCRAAlcTIACwsVM+A4JkECZgLH5Q2ug+QmK2HXrjj7z8usiMCkUppHQCOGH4vrihJC+GBt+DSlsdFPrgI0x2Ig+iFy3DbkNQuIVXVwbZg3VMugBlTYIFZobwU1lpDAzL3Y5w2Klp/M4EuglAhQQeuluc64kUCUBH5kM1dE/e/yUnPjU583Zy3/xJSmcWhZnpF+s/ije88SZGjGfWXbjBYTQMKo7ovXtv0FGf+JDptLj4qceFHcxI9ZQFCYH/BmrMO+RpVkZI0FJHToqiWdflf6bd8u2n/rR2rQRZlR8IoHuJUABoXvvLWdGArUTUKlARQPs3DWEUTUJ6/t0DTuEh0BpUdUMhxUuzrUPpnymGVPdvZQ60Mmo5qEa7UODLs1uSKBTCFBA6JQ7xXGSQIsIqECw8uSz4nqurH71MUk8+SJkADgnLiFZkTYkKwpcP2bU+ya7IUwMXhZRAU1ukS1TsuXHfgA2joys/MPDUpxLnBVaKr20qekAoUbTL3vTSXG3JiRz8oyJkAhvGjPmi0r74nEk0O0EKCB0+x3m/EigSgK6iHr5grjwM8iempbVbx0WZwgZDMvWA2cAan14/5/VHKyrFqq8TrWHq+9BGKGPHsIo1e/BT6CQ0yDUF0YLUIV6QRM4QSMieVR6hB+Dh4fOWXto0VSqnTqPJ4ENIUABYUOw86Ik0D4EPOQEUK1BfmYB6Y2fRyEjX1Yef1q8Ql6yJ2YkMBEpVT5cz4yoC3KrzArnYFJthaVOiciuGL97n4R3b5XcmVmMe8kkVKo8eRLMJWomgS+CD2fH9BvHjZARHBkyeRfOuSRfkkBPE6CA0NO3n5MnAaz1WCQ9mBMycEQ89em/N7vp1Feeg9kgA+fDQbGHI9hxa+pkdTjYuGbMGQh9tCMRid5yo4RganAfewr5EWbhqAihpZoIChU2+gJGMEohvwLiMpH5cc/GTY5XJoE2JEABoQ1vCodEAs0moE6HbgKqeijWc6dmRNMl509PG+2BhQJH9hjMCEkHu2z8iYBw0G4tgKqPqk3QZEo+TAUSqkGlgZBH5eBB0PCtkjNmu82T4yGBjSRAAWEj6fPaJLBBBDR8cf7rT0Bz4MnCX31eVr/yjNhDMCWE4FuAZg9AazCoIYxt2GAeGH373eJDY5B75pAsL66I5Q6IE8eYK2kqS+BcKxoUN1eUxIEXjKDgf/CfVXI2jyGBniHQfluDnkHPiZLAxhE4r9KicdjDqqlJjzqlqTehcU7slAFznCTQeQSoQei8e8YRk0DVBLysFk+yJPniKzL3ha+qZQHRCQdENQmaVTBw7ah+jDW3vGdo48VXfSHCU5uMgKA/gzs2Q3uA7Irwo9BWia+EpSmXkTQJTgiSOfiG+Kge6YGDNh8mlvMEKPMun0ig9whQQOi9e84Z9yIBVFzULIdqb0+88gYEAUvSB46KnypI4JpBZETsQ+hg52gQbIQ8arPCQZM62UQ3aOplbZXoRVUA0loO6ouxkoKgpCGPJQGj1AmfSYAEKCDwO0AC3UrAdSU7u4BVVCT55HNSmJ2XzIkzUlxcNbtvewxCgeYRUL8DNTN0YAsgNDFy4zYR1FQoHj5uBJ+qohmgLfAzSCcNXwSTVlqFDEVh809jB34dOOQGE+C/ggYDZXck0C4E1EM/dQwhfMhfcPr/+VtZ/tJT4sRiYg2HzS7bUa2B7raxSJpHuwy8inEEkP2w76bdEHpWJP3iEWgFYDoIYT4VmkjUnODPI4pBICDkckgQhaRJONeCxoWNBHqdAP8V9Po3gPPvOgJaedFFSWYfCZCK89AglJwLJKDFlfqgLdDFz8YiqlqDzrEqXPo+IczRCiE3guZA0Png/6qb5nfwkEkRER1IHym+JmNiIwESEAoI/BKQQJcRSKIc8+xXHkV+gJzMf/LvxF/Liz3Zb5Ie1baCti+gyOYJ6d+/V/LIhriU0XwIGKsKPZWu8TC/SBQHZ2GlQF6I7NKyBPr6xOmrMGSyfdFwZCRQN4FK3Hnqvgg7IAESaCEBrSsA73z1zFfhwE+jkJLurrvwX7uvpgRNAV2hSeFqd0HTTLORAAmUCFCDwG8CCXQwAfUz8NWcgAiF2U9/XjLHTkkOjonpg68hOyCKMm8exI7aLSVAUl+DLmt2NCLBwUFxY1FTeKmkOdB5qmqgmmaJm8lKERklrUApWVQ1Z/NYEuhGAhQQuvGuck49Q0Ad6nynZINPHj4qq8++JP5KUvIvTYvEAuKMD0DdjgWvC4UDvcka3qjZH02hJlR41CqPtTYP1St9OCkioUKtXfA8EugqAhQQuup2cjK9QkAdEbUKo9ZTWH30O2bDnEMIo2RycLZzxR5FmuSA7qKxYHbxeueg7LTWZbDDiMzIY67BGiar+RD0obSqVTyYs/hEAt1JgAJCd95XzqrLCag6PL+0IvmT0/Lqv/0d8bMFsZFN0JQx1iyBQxAQulRrcO6tteFQGIY5IR+LI48BhIOC+l9UbmAwIY3gJcHaNQ/njoevSaCbCFBA6Ka7ybl0PQEvXzAOh95aEiGMS+KuronTHxE/Ak98ddZTT0T92QPCgd5sdSpUPwwjFXT93ecESaC1BCggtJY3r0YCdRFYfvp5ONNlZPWrX5e5//ZFsUYQjhfDHhp+Bqo9aJQ3f12DbOHJahIwkQyNiGKA74GPPAhan4GNBEjAbDeIgQRIoGMIQDvgWz78DwpSSCekOJ3qmKFzoCRAAp1FgBqEzrpfHG0PEnBhTlh8/Ckz88XPfFFy0wtSXE1IcPuE8d43mgP9tBG76A7jC1nJmBkaYmJQfppVsQc5dtht53BbRIACQotA8zIkUCsBTXiUeuOYOX3t8Rck89oJpE0eFWfrcMn23iP+BpfmpxoVLOyNWNTRhzotorNLX4rvkkCPEaCA0GM3nNPtHAL5mTlTjbGIaIXsK0dKAw8EJNA/JHY/wvrUOa+nhQNMv4BwTySK8nLIlXxOuGJVd9nUYGAUQ1XMeHBPEKCA0BO3mZPsRAKrzxyUma8+gnTJKVn5fx8zUwhcD83BztGSYNDjwoECKcJhM7e4JMUUMiBGEN6pIZ5VKABMJsoCIiHwYCMBEjifAAWE83nwNxLYcAJeFsmOVDtQKIhVFgKsgXPS/zZSMNB1sYoFdcPhXDiABoY5mpwIWseiGgnjwvHwdxLoIgIUELroZnIqnU9ASw4f/+RfSn5+UdIvvSbpJ18VK4psgZuHSpMrZ/yre6ZYWDUSQk0UpVTFcM7rwKaZJAtzC1JYSYgVRqhnSMs4ViHxqICUQnplKUpoaFDCE2PiRGG+YSMBEujG+m68qyTQuQQs7GDdbFYKqbS4SdjW51CIKYVqjLXa1y+FwiRUggsDsi+aB5wgO7Wtj7wRBgIVK4wWgRqETv06cNwNJkANQoOBsjsSqIVAfmZe5h78J3Nq4olnxV1aEzeVgb8Bii1pKuA629lsg0gE5CdhuugLyPD9b4N2IiyZV45KYXpRV8dSRcQ6r9XK011oWlKHj0hxbrGkPQiBVRW4jEAwBI1B1hFnoF8CQwPlSIZWzoLXIoH2JEABoT3vC0fVYwRceOLPP/KEWZwyLx0Tbz4j9lhELKRRrqdC4VmM5YgHD1oD70xC7E1Rie7eIdZgvxRnF6U4s1wSEM6e0BkvXGha8kg57a2tlQSpanf/UBuUzBJQ0qDgkxMJM5FiZ9x6jrIFBCggtAAyL0EClyOQOzMrhcVlyZ48g2iFtFmkrSDKNw+GUEAIW2Fd2Oto6tNgGsog+yhnHJ4alb6798FeH5C+ndvEQiXEDHbOplyy6ti1IqK2ahfa0lktf/aSadSkWBYf0QzGDFM2n1Q0EGWL450xLfSEFMsoHW2aZl+qxo+hoovxIBLoPAIUEDrvnnHEXURg8eFvysyDD6NMc14yT7xqFix7rA87e1Rj1LZuZC/9Vt0zFkA/DUdEbXjtrual/703yc5f+0UICwWJbpkyH+UOHZak5lnQ49cSWBs1XLC8WJoj2vepcGJakl9/FpUsowhzLEd6VCLc6FyLRZwTltD2KWgN4KzZV3JOLCVLat85c2Qk0CoCFBBaRZrXIYFzCPgF9ZzHThULlTommhS/AWzhq9kBn9PfZV9q32h2KAClgCM2Fn5PF0YtSqTOiSjwZPwTLttBm34AbmebMtMHplRLMwKBak/YSIAEziNAAeE8HPyFBJpPwEd+g6O/80nJL69J+uBrkn3puAhC9OyRGBY6XL+SHfDlhqlWCYQv+sm8CfuL7N4iHswL1/zrH5P4/n1iR0ISGB8t1S/Q6o+m+WJrBcNzF93L9d8G76vZJA/TjG87kkOIY/HEijhTrjjKr8LmFz3xskUJ9sckdsdeFdXEgbmFjQRI4E0CFBDeZMFXJNASAlYwaISDPGznLuL3vaUcTAoeHg1YoFS4KKppQTUUFoQDLITQFgRGRqBK34zES7jOuq29JbNtzkWM1gNzVWHBRw4DKdagPtCEU8ClPh+m1SOYNWea7JUENpQABYQNxc+L9xIBdUhcevRbxt6dgeagiCqNbior9jgiFVBjod7mZ5CBMV+UwNiAhK/dLIGBmGz+se83AkF0FyIWcIFL29chSMDvwJg86h1EK86HULD6zIviwkyTX1iG/0Ec4Zpw6qy0qTkCAoWfKYgNLUr8hmsVDPrAfWAjARI4S6D+v0pnu+ILEiCBKxHQokvTX3rY+BxkYFbwVnMwK8C5Ll5nKKOxFGCRT+XEW8hKcHJEAlvHJTQyLOMfet+VhtSRn6nWIPHaUSkigiGfSKJwVQhOlVX+KVOTSgoCAnw0wlunzE8nXIWQ0ZHkOGgSqI5Alf+qquucR5MACaCkApL4FJMpE8qo0QrqkGjSG8eh4tZogXps/+hCfQ6gApDgFMo/T4pEd22R2PXXGg2C+juoSaMrmnJSkwKcLD0IW+4qzDOoW2FpOGiNzp3qIBqA74FxFO0C00tX3GdOom0IUEBom1vBgXQrgXlUZJx/4oD4i6uS/uZLpuKgPRZDZEH9oYw+fAzcE2uI4/dk6KffL4GpcRm+61YZf/99VeDsDCdFH2YBN5OFA2ZaVr/6Lcm+PCPO5n7kjADHGgpYaWijjTDH/r3XlwSEKojxUBLoBQIUEHrhLnOOG0Lg3PBBGzZubPKrT+ZTycg1vbA626kdXa/RxU2ZGq6qMai3cJWer8zq0eB0MWtOjQQoIPA7QAJNIKCq71N/9TlUTMzJ6iPfltRzr8GsEBBntByKV89KjsXRQ9ZF72RSgtcOy8Sv/KgREDY98F6JTI6L3aXOdhlkm5z54kNiIUTRReZDexiaA41AqEJ7oKGNapKJ7r9Ghh7YCV5jprxzl8tVTfiGs8teIEABoRfuMufYcgIaSphHCuUiKjMWF1cQq78G4aAPEQvx+saiO2cIF34e6nYvKU4mjhDGQWODDyO/QRCPbm0+wjVzS6ulHb8KBbX4Heh50BioD4g9gOiHWNnM063QOC8SqIMABYQ64PFUEriQQAHCQOrIMTjP5SV94JAUUUyouIaqjFtQ7yBUf/pibzVtqjFG922TyPvukeBQvwzffTts6KgpEK81j4KaP9o3zNGFg6cH/4P8idOSfvwZhG0GTP4DK4LskGeTPV14Jy79u59GpMdsRqIfGAW3W1GcCQWx6tHmXPoyfJcEuoIABYSuuI2cRLsQKKysyspTz4uH6IHEt15ElUSYAXYMiT0E04KG1uH/mpoJZcTpp5A7wUtIePPtMnj/90gA5oTBO26uqctOOamIstfKM3d6WhIPP4Vkk1EJ3jhZW3TGIgQESUhkdEiG7rjFJJHqeseNTrnRHGfbEaCA0Ha3hAPqRALqXS9QgRchIBQR1qjqcCsKNfYQCgDpLteE6NU4M3XMy2lmRGRk3jsB88KohDaNSRAaAy1RrHkBTJhejd237WmwBqjzZWF+UQpIiFRAWWdbYKYpF1WqatxlR0R7Mir2tCe25jxQB8VyrYqq+uLBJNAjBCgg9MiN5jSbSyDxymuSg89B6tsH5PR/+jOxg2EJXDsqgS3ITaCtCke60gnlZ5UtIBy4h5fxhi+bf+dnJbBtSgZuvE4G9u8579Daf2nTMEcIPipczX/6H+TMZ/8Ji3pAAjdMlKZZjWlBBSwtTIUW3n+thPaLRJA9MQwhi40ESODyBMqKy8sfwE9IgAQqIGDs2Ou+8Nj61lAa4MpX0e00Fjm9RI/YzP1z54n6Eg1pSODH7wAAQABJREFUqkkoaxMa0h87IYEuJkANQhffXE6tuQS0EFJ+dt44yi38xd/J8mPfRYVBZDTcPQUPeyxE1exyLxwq+vFW4Zw3nZLQnk2y6bf+pTli7IPvkRAiFRwk+Glcaz8nRTedkRN/8GfiwXSzeuAg1nTUTshrBsoq9zTg6Odc8Y6vmLwJm37pxyW4ZUriu69pHD72RAJdSoACQpfeWE6rNQTMvhYRALnTM5J87hWkN4ZZYSdU13U5JEJNgN2znywg3j9hfA4CW5BDGS08gVDGoaHWTG4Dr6LRCamjJ6WIWgtFpFQWlKw2ZppztQqVjE81LjDveDn4iED9EhxFVUvUXnBQ5pmNBEjgygQoIFyZDz8lgYsIqFOg1gRwkfJ38XNfNg6J+YUVIxzYQ4irVxV2yeR90bmVvOGvIAkSwvqie7ZIaPMtEpqckKF9N5hT7VAjNQeVjKa1x+Rn5iVx8BWTYCp/akZ8VLv04IOhDp9Va2QgVPhIqGSh3kXk9p1G6AqDpeaLCFBAaO2N5dU6kgAFhI68bRz0RhIwqX6hIXDXEnLiv35aCghlDIxHkesAO/vyjrWe8bmnNZQxafIcDHzfOyTU3y+Dt8OzrmmtfZwUM6fOyKm//gcoUHzJvHAEWpSi2GOIXICDYrVNBTk/jYqNIzEJ79llTu/buVVCZW1Mtf3xeBLoNQLV/6vrNUKcLwlcQMCHfdxkSUTonRMJiTeEZDtaCXA9u58KCdU2tVWoZgItsH1A7HREgsj0p4l8eqEMcREZEjUtdQGRIIJqjdo0NTWiGo3vgHmj2ie9H0jLrBqE0PiIOVt9RNhIgAQqI0ABoTJOPIoEzhJYQyKko3/wFxAKLHHTeZPFUFByuJ6Yeq1U6M2twcnAkbF/cb9YyHEw/u53yNC9t5+9ble+0PBD+Buc/L8/LSvffQElnJOSO3RMBFkn7TgEryjyFdTS1DkRyZXc+ZT037JTdv37nzOmn9BYOey0lj55Dgn0GAEKCD12wzndRhCA138Bqm+/So/6q1xaSzbLejZmdcbDIleP0HGVy7XHx+VIDzUHeNAcaIIpyasmpU62ys/kP0D0g/qEQMNjqjZW6+TYHpQ4ChLYEAIUEDYEOy/aiQQWHnlccsiSmH7uoOQPHcXuFrUANOwuDO1BLQsPTvUzWBShhQiMD0j8B99utBJbPvyABEaHJTiMIkytaNBeuBnY6k354zoX5grGW1hZA8cFcRMpmf3zzyBKoyjJw8ckv7QiFmQDawwRBsqzFqa4vreM8NDVHKo13iWxn9sroYkxCaFmhWlqCmIjARKoiAAFhIow8SASkJJwcPK0ZKfnxD25JtZQUJzJodqEAwWq5nBoIjyEMwoSBDpQf6ugEd2+VQItVIXrDts49LUw7bCr/gZrSVl67IB4qTw0B/A7UH8BLcBUs1kBPCFgeKtZcVG/wRkalDAyJgYRsWAFEQXBRgIkUBUBCghV4eLBPUcAKu88KjRqVr/cq29I9vAR1ARYFnsSu1z4HdTafCyGgp27PQgP/cGYRHZtkdG33mkEBEvrBLSyaY4B9QWoccd+1aGqih99p14/Bp+NtOSPn5bU8y+Ji4qXxowCvwuUk8QD5gVUaqypqZCTwflIUBVGIScXWgmNWIjtgLDV0KRSNY2OJ5FARxKo8V9jR86VgyaBqgmor0H6+EksPLasPfpdWXnsaQkMjYmzHc5uuvDVWGPBzxegWnclsGlcAsNxid10vUx+/weqHl9DTtBwQPg/+EalUWePKjOpg+C50QJlwWP5209L+uS0ZJ49KMuf+xqu1ifB68chPMA/IIAT8bPWprUW/BUkQwpYErpzD64fkIHbbpah2/bV2iXPI4GeJ0ABoee/AgRwSQK6+GuDBsGFzdzsrrHo2QLP+ggWsjqEA9OvLqD4PxBH6WKUHg4gaqGj27oyBUKPlyuYFMmaLllDNz0klFIBy8Pvfh5RH/jPkbhITJM+qZ2ljmZuU+lemWRKEBCCAwPiB2GqwIONBEigdgL8F1Q7O57ZxQR8eNR7WNzyZ2bkjf/wf4iXxY4fwkLgejgLILVyTZoDVYOrKh9Naym4RUs2/9D3ydgP3W8EkY7FqZv/UMnGnz56QpyZqEkilTxyUtzFJVn8/Fcxbx8hjNmSgBB0JHATUkfrul6nWUMdHFUb4wxAG3HzViMU7Prln5Xwlk1iI/8BGwmQQO0EKCDUzo5ndjEBDS/U5Ee+7cDbPoMdcUGsPiyCKhycqz6vloGea2oDQABB9ILmALD7omaRq7ardjzeODxCELJU5Q8By4WgVUDqaBO+mIYjIjQMokEKmjq5JCvVNw1cQ3kaJ0sNkYTAoYmlbON3UNYC1XcFnk0CPUuAAkLP3npO/EoEEi+8JPOPPiECb3jfxaKu8foQDrSIUE0NgoEP1bs7k0ACoLDs/LWfQcEgpFC+82ajct9IL3tjv1cNSa3afizK61xyR8+Y1/ljp8V+5iXxsLtX/wL93FcHRBUejJBUE8WzJ/moz6DmH2d0ECafkMRvvEa2/eRHjOXnzQiQWid09jJ8QQI9TYACQk/ffk7+cgTy80uygoyJKAmARcfowkuag1pV4noeCge5a/BnSMYlfus+CW6ekBByHZgcCrX2e7kJVPN+2fRRmmc1J55zbHn83nLSaAuKmKs6Yapg5SBSQ10NLPgHNKr5cB4VlHE2Ka4RwhgcG5H+u29tVPfshwRIAAQoIPBrQALnEMgtLJmdaW4GuQ7mlrHbLWsNTBKh2hY4rSjop7Oo9hiTofvvETsUMq8d/DSaiXOuvxEvS2YBLObqFFCP+UQHD4HAaAg0c2FQ+6xR46J9XdhUkNE6DdDkOENxvHal/7YbJYpwxijCGbX5MDeY6194Ln8nARKomgAFhKqR8YRuJpBAroNiJiOJZw9J6pGDcH6LSmDbSO1TxoLrwYfBnV6T6D/bJps+/uMmW2B013ZUKGyP0s2+DwEG6nofFSrrTe18VhuickGDnQQ1d4S/hFBG1GkIXrMZ6a492fQD3ycj73n72ftD4eAsCr4ggboJUECoGyE76AoCxoyAHWgOWf0gIOhihIA5sWooM3yWh/ap+YdQldAeiEAgCGI/rbr2dbPF2SM39oVaUDSfgz4auOFv2KTKHNUB0Y5D64LwRQ0LNdqCsmmDmoOG0WZHJHCWAAWEsyj4omcJwOO+mEKsPhab2T/5tKw9+ZKpsxDaiyQ+tTYsat4awvrgTBd/x00SQNjd4N7rUKHxbaZHu51S/0Io8qZTqMUA8UX9BdqpQQPjLqXFm89I9JbNEr/vXUi2GJCdP/8vICzExIlGzGipOWinm8axdAuBdtwvdAtbzqNDCGgaZQuLjj40h3/h+OrZEEQVGmpumk5ZKzRqH1h8VeWu/gf6qKvfmgd0mRON9qSsQbjMIRvytvpDgJ2fRUhoPmsqaCpHH1ERzmC/BPBYz7+wIePjRUmgywlQg9DlN5jTuzqB4vKqzH7hq+bAwip20uN9xixgVO5XP/38I7DYrkcDOCNxkz9h7N1vlYF7bjcL2vkHt8dvxv9AEOYIZ0rjpKimhg1qairQaA9TdElDTFHtcuj+uyS8fbNENk/K0LvugcwAU0Ob+G9sECZelgRaQoACQksw8yLtTEArCy4feNEM0U1mS34HSJBUb1OHP11q49ftkoHbb663u+adbzQIqCipRZs2qq1HT0DrolkrdSzu7Iq4kjPCQR8ErL5NEzJwy96NGiGvSwI9R4ACQs/dck54nYCbgdoajwLSAbtzi+o5CMc3xNZrDv9aTQsaDaBZF1G2uP+eUlx+YKB//ZJt81O1HMVV5GSAx6QWpFKHTNFQzlY3I5wAPTQFSLsI4SyM/BAoew3hqu+te4yg0H/9LuQ5GJXgIOo3sJEACbSMAAWElqHmhdqNQH52HtUFz0j+2ElZ+9y3MTxfArsnSp7ytajZsQtWe7l7YlmCW4Zk6y/+BCo1DkoYxZjarWlq4sRLr0E+sKWQSEJACEMwgtaklnnXMTlTmwIlmr3ZNaS0Tktk3zaJ3rxbnFifXPvvfx4/o+IgYsGutQx0HWPjqSTQ6wQoIPT6N6CH56+Lk+6e1QZvoTxw3YujLq4QEqwgFlvUbbC0TgCS+dTdbwPvkQoGmqJYEw6ZbIRQGphFutXaA6M5wMXLjoh2Pxw3YVawo2HRCA9btThaMAvFmBxlSAGhgd8CdkUClRGggFAZJx7VhQSSjz8lJ//0c1ik4BW/a9DM0EISnqoXdAQoeKsIxVvMSOzeG2To4+8UB9UN+67dgQUPYXjIKrjRTc0p6hCRfvV1mX3o60ZIWPnio7D3I8QRdv/A9WM1W1UqnZsRTuB96KNok7ecESsWlOj124AbCY9+7iMS3bVDgiPDEtu902g2AgMwKajAVau5p9KB8TgSIIFLEqCAcEksfLMXCGghodz0MtTYmvK4zkUci6yfgh0dC5qDhU1LDWsBJg2dbIdmo8IhBqduFqiumIBEA/e/44virWTE2YxwwRgEmWaZF1RLoA3KC21aotlbS4uVCom3A9ETyOTo9MclOA4/AwgIwdHh0oF8JgES2FAC7fHXa0MR8OK9RECd89aeeVF0R504fAS7WZRyRkUmK1hOCVLlbtXsirHwBaZGJDAxJPE9u2X0bXcZJzujJt8AuH6hIB6SH7nQDiSePYgF2JP0c4fgiLkk+bWk8bswZReg1reiyP8AbUfDhQNwNuGeEDr8DMpaozn9yH4IIaX/3ptkYP8NEJ4c6b8ZjojwgIjeuEsCQ4PlMs3mcD6RAAlsMAEKCBt8A3j51hNYe+V1KaKqYubUtPgriGTAEOzhGjMIlnfdFgoxWQiNDG+dhJBwXesndc4VIe7AbIBdOoSg5aefM2mjF//2K5I5dFgcGRB7C6IqIAhpnQkrovYRqBWa0bRf+Hh4cynTux2OGKEhun2LDD3wHiNEDd2yrxlXZp8kQAINIEABoQEQ2UUHEFDdujroYdFyZxekML9ovOYtk9u/dvOCn8fuGNkSI5vHJTw+IqFNY62HoU580OLnF5bh1JeX4sqaFGbmoUXISQHvWXDGtCNBCQRHIAjBlIDXerxpjRYOcC3EiqL/kkZGnQ4jd2vKahsVF7dA1RKQ6O7tEtBERzhGNTD1Fogqz4Q/SIAEGkyAAkKDgbK7NiWAhaiomfmQpW/5b78qq999RYKTWDA3YTdd4yKpi5t7dAkaiIxMffDfyuD77oO/4/rK2xoOZgwwk+giO/fg1yR9ekayCF9c+ZsnxBpANAC0BNqs/rBxRGz2qLxkTgShnpZGJaBIVWDTiEx9/KPG0XD0vnslCDMCGwmQQGcQoIDQGfeJo2wAgZK/AHa3COlDsl5sahuwmEfhjJgJqEnfqPJ9rbnQimZs/LgQhBQTrqhZG/GeevybRwTj0kqUrQ5fVKaolWCcMyEgWMpDtTdoGk7KRgIk0DkEKCB0zr3iSOsgkJ+el5OfQkgjWh4OfM6mQeQqgJq7Wu2Brnc5V7xEFkmQYjL5b34EPVrSt3+vhEeavztWs4GGZSZffk3Wnn9FvGRCFv/mK2bxdRGV4ZUFBmcHshGqw+W6EFSl86UBVekT8heoU6S2ofejVgKSG43cdZsM3XObcUR0hgaMRcPpK2kzKu2Wx5EACWwsAQoIG8ufV28RAdUe5JZgj8dCabzrNWvg+uJZ7RhUqICQoMKFrYufFWhZvgML4Yqq//Bg68+vrYoLf4PE469DQEBCoU0xEczL1p17VMMaW9jKgpatWQ8RshiampDINdtaOABeigRIoNEEKCA0mij7aysCJb+DvOROT0vmu4egcocqHnH4dgQLLXbi1TQjWGC3rOF5zkgM8fpDMnrvHagsGEL8fuPTKRuTAYSBYjptNAY61tRTz0F7kZIcakekT84gE2RBAlvjJfOChitC6LFqFXyqgXHesRCY1DkRLTQ2LAE4azpxagvOQ8RfSKADCVBA6MCbxiFXTsAUZMICm59bkORjL2C5deCsN1myz1feTelIEwmBtMwBLMQBpARGaOPQXbeW8ghU21cFxxsTAY7TbIcrB14wZ8z+8Wck+8JpE5VgcjfA18CZhLlEP63WXGJ6bNBTseRnEB4bQrGlSWgRoM1gIwES6GgCFBA6+vZx8Fcj4K4lJD8zJwWYF2zRED+YFmr1TUQ4ozoEOpP9Etq8SULI+mfqOGglxEY0s8aiyiLGrPURXGgKvFQamQ9RyAjhitrsMMIVJ5GCGFoM09QJcSMFg9Iozj77GIuac6yyY+LZD/iCBEig4whQQOi4W8YBV0NgFfUWZv/xa1jYC2JvH4BwABV8jZEG3kICNv+EDL/zVpn8+MeMnGGrWr8RTYUDdTDEwjr/yONSSKZk7ZEnZPkrT0IowD/TfEmFbw9FxR6FgMBGAiRAAk0mQAGhyYDZPQlURACKAF8dKC88WLUDbaQhuHB4/J0ESKB7CVBA6N5727Mz0124hjWqQ2L6pcOS+MoBccbgXa9hjdqqCflDX16uYBbpyB274X9gS/zO/TJw0w2lvqp0dCydBGFA1fA4N3HwVUmdOC3F2TlZ+vuvmSiL/PKayangZlBIaSwOdf36WfhZo/bjnB74kgRIgAQqIkABoSJMPKjjCGAB1sXUS2eRQXFFLDjRObvhg1BLUwc8CAoW7P/6sBHnH4jVWLuhfP31CAoXpo88fAzySI288tDzKBqlVSARXYEoSnskjGyImquhlkHzHBIgARKojwAFhPr48ew2JGBBOFg98LypZqjhgKgZKDJSo3CAxdnPQoMAB8XBW5EMadukxK7bVdOsi3A4zCIVspoM0s8eQohiTjJHTklmdl5cFI9ypqAtWM98qFqDUO01IioaIIQe06rRqFTUMQ8iARLoBgIUELrhLnIO5xHQ8sYL33wSoY1LyH8wL/bWfuz8q8t5sN6hmiu85azJnTD4llsljoeDHAq1NA+1IFZfeNlEPpz+3T/F+KDZQN0CP4HaBYNBcSbgRHmuF4JqDpqoPfBR8VGbSYtMIcGw4BMJkMCbBCggvMmCrzqcgC7momWOoba3NPVvNgfTgurqMbFydcGKp2g213hC0qHA1oFSciUNLazUYRBj0RwMCPoziY185DLILy6Ji4eGMGq2Q6cfyYSCBfGDWKjVrFBp3xVP4hIHYlx6fVOvAQmeNBTDUi3JeuhnK8ZwiWHxLRIggfYjQAGh/e4JR1QjAQ8LcnZ6DrUS8kiK9IxkXjwlWpPAGYS/QJULnw/Bwk8XTMbE/vffazb20RuulejmCayo66vp5Qequ/OlJ75rKkwvfPZBWfu2JjqCsDCfgtABf4YBmDwgtFgovdyKtMilQlUQDiCoeLNp1KEISvQt1xntgbeShK9GHo6TqDHhlWoqXH5m/IQESKBXCFBA6JU73QvzxMJtsg/qAq7aBNXPm58Nmrz2W4FwYK6m2gbVWmB7rsKCFjNSscLPwJ9BP1JrwgY0H6mi/Sy0KvB1UE2C2HhUKTxtwLB5SRIggQ0gQAFhA6Dzks0hkIf2YPpvvmDU+lgHxd40ZHboVS+AMCuYnfaphITH+2XLhz8kNqILwpvGLjvwxKuvI+PhquSOnZG1b37XCAOp146ZcMYCwhYtB1IB+rWnSpKBhkuaVqnAcdkrX/yBagu03oR4mEcyiwN8CW4fM5qK2FuvkeH77jaCVP/+PUaDMP1XfydLjz8LxYaNjI0ZM871KIuLe7/yO5aNKAwz1/L8rnw4PyUBEmhjAhQQ2vjmcGjVEfDyecmcnBZfF3icamkGwmp9D/SSWLT9AtTtAnNA0ZPo9i1G0LAj5TwKlxiWB3+H/OqaZE+dkeVvPWMWycIrMxA04ICIYkp2tHSuhjE2rWHepkE20JLUWkDJnUfaZvznTEFYAo/g4ID03bLXCDBx/NQWGhsxQoHvY2xw8BQPi3uN67smeyppWcpjMVfgEwmQQCcSoIDQiXeNYz6PgAoGqi4vLq1I9ujJ0g4WpgULjoDVlnQ2tno4OYa2jKCo01aJbEfhITjz2UGUUC7v9l2kQc4vLIkHP4XsocMQIlxJvHHE1EzIzyyUr4lS0ON9JYdA+BmYcTRBW6AgfAgx5if8C1QocAb6JLgDvhIQRuLfB/8JZFrq27UdFRZjCNPcLOHhUnGn9WRNZs6mBz6RAAmQwJsEKCC8yYKvOpSAm84gcqGI7IlzknzoOUQIhCW4a6SkQahyTn4eUQVwTgztu9aENIaGBiQ4XKrhsN5VHoLI8vOHEJ6YkhO/+acmGZO3khZ/LY/kRhGxkbVRmzUQNTv1qk0c6xeq5KdGJWRKjoXuCWRglJwE9sUkdM0WCaCi4uRPfsSYR+LI3eBcQQNSyaV4DAmQQG8RoIDQW/e7K2erDoCaMdHD4m6hsqJ66Nfc1GEPDxt2dKcvgqyGASRcysJS4ZjKihrdUESoogdzgp/J4ZgQNBZ6Ndj9w7C/n2vWaIbz37lOl+X+1XyhZoTQdTAVuK6Ep0YlPDqI1NIo7IT31VFTi1UJBYSavxY8kQR6kQAFhF68610259UDL8oadvSFM/PibInB8a7kEFjTNDNFcREGGL/+Gtny0R8w1RuXn0KIIuz7c3/2OUm/egz2/awUZldMJICUcwnYcYQt6kN1Bk00v5u6EEj9bDQdy9BYTEQl/tZ9kGl8mfznH5DQ1kmJwKcgunOLGYsdCJgcB+vmkZqY8CQSIIGeJEABoSdve3dN2njtw/auGRRLDnL1zs8VXVjtWMxoJdTxThdYL5cTNwlTgmoslhAdEHFKpZjXPfqa5GNgZrPugKhaAw1VzMCJUn0OMhAA1AcBAoKpEwFtgjpT2uE3HSqbKK/UC5rnkwAJtDEBCghtfHM4tCsT8LFYWlg4swdfkeV/eBivbSzqWBh1Ma1xsVa/gQDMBCvPoFbCb/weTBcZSR85YQaSPT0Hx0So6tG9vTlurmPSFOunNV7vSjM0Cz9qQKjZwEtouCJkkjuuNU6T8d07JLYX1SVDIRnYd6OJ3AhNbTLREjbeq67BpKLC1bnmi+o64NEkQAJdSIACQhfe1F6ZkgoH2tz5ZUkfOCKBTYMoj4zCTHW0UjVFR3LTC7KUPGD8DDLPQEDArt3ehnBFNSngupaGLTbDx0DHXp6XRiSoX4XkYPZYWjWz0utbSNEcvnYbTAt3wv8hIPEbr61jxjyVBEiABC5NgALCpbnw3TYnoGaF7JlZs3MvIgeBLVg4G5VjQHfSWi5aHfuws3YmY0YYOBs2qdqCRgsH6ksIgcA0jaQw4YoxCYz2IyojJNF332o+6r9rv1goN923a4cEELbowHnS7PyboMFo868Ah0cCJNBkAhQQmgyY3TeJANTuq88dFA8LaW5+CYsmBIRakiJdanhYbNW+r/4G2myt5aCt0UJBqdfSM/q+MFwxdM+IhK7dLiFkcNz8sR8yxw3sgVkB/hFsJEACJNBsAvxL02zC7L95BJD7QJMUmSqOqC2w7ivYsAuuCxzNEAygMSg11VboLzBbaEIltOAO5F3IuxIY7De5DAJRREegkJI2zffgtLmAYLIpmtHyiQRIoJMJUEDo5LvXw2P3kT1x8e8fEq1zkJ9bFAfhflg5G0cEWgQTLtm4Hs/rSXM3aPOXkb8BERHBnYMSu2efiZbY+hM/CNMCtAejwxIcRYpkHYv6PqCZOgfmVfs8qYBmaj9gSBr94QSRi0LrMbCRAAl0NIEG/kXtaA4cfIcRKIUdFsRFsqJSVcImaBCawWTdAbGgWgOUf15FyCRqPnjJKOYBLQE+t/vj4iCDowMNgqZH7rhGf4iOu2UcMAlcigAFhEtR4XttS0CLIhVW1sRNpSSHwkz5mWUT/9/OdnljAtGMhijc5K1koJmwJXzzTiMMDHz/dSgGtVkcpEWO7b3BREtGdu80aZGrD1ds29vGgZEACXQgAQoIHXjTennIfhEhf1p7AQ6ExYU1KRxdgc0exYeQv6CpToS1QF/XFmgiI/gQeKiZoOGKliDBkmZdhBq+b/+NMvCW28SBn0EMBZXYSIAESKBdCFBAaJc7wXFURMDLZFHS+Qw8/pE4CAusPQDHPqfG2sQVXbHKg9Qeb8IkcZ4Jk0QypziKNqGAlPoUhO+8AZoDW+J3I1wR9vroVmgPIBzYoTrqR1Q5RB5OAiRAApUQoIBQCSUe0zYE8vOLMv/wt8RCeKOv9vohaA40/0EzIg1qmLVv0iDDARHj8U6twb+gKH13Ifvh+LDJfGjCFSFA9N9UMifUcIkmnIKwThOxoX4RbCRAAiRQIkABgd+EjiOgwkG7CARn4anWoNyMPwQSLNlj0BzkXFR8RFVFrY+AypDGEVG1DNAuWNQarCPjTxIggTYkQAGhDW8Kh3R5AoXTs7Lwl1+Gd7/WXMD/asvfQK95Lf+skQfeQlL8+ayE9kxI+I7dJiXz5A9+AD+DJuthaGQImg6EAEJY0NbOTpWXp89PSIAEeokABYReuttdMFcLKZDd6aTIOCoujiDD4UYJB+sOiFrkyLPFg3DgSlIC6QGo61G3Aa6IAQgFNmo2BCdGJTA02AX0OQUSIIFeIkABoZfudgfPVZMhuQhxzM7MmrwHPjINwsAPB8XWTepsuGK+KH4adRrg+xCcGtZ0BjL2C/dKGIJAcGxEotfvglYBEQoIV9SEQeqE2N6N1Rzb+/5wdCSwMQQoIGwMd161SgL5VYQ0JpKSRw4E5FcWHxUOW9ZMkAQSMalQAqnESyFcEVoM9SEI7NyE4XgSv/cOid+yR4IDA4hMmGzZ0HghEiABEmgWAQoIzSLLfhtKoJhMSgFFmQqpNHblCAmMtOCrW3Y8NMKIh4iJGPweAlYpBfLNMG/ApyBy4zViI2IhPDYMJ0SkGF43PTR09h3UmZp8zKODxsyhkgAJXJJAC/7KXvK6fJMEqiKQeemwrL74quTPzIs92YfdO2wLzUx/oJEGGi2B9MfuqQR++hJ65w1wiozK4FtukfEH3msWwoGbrq9qHt1+sIWcFFrDwkKuBzYSIIHOJkABobPvH0ffTAKqDfBRKKkPGgtoCczCB58CrQPhw1nS7JRViGinRE3N5MG+SYAEeooABYSeut2dO9n0y2/I8v94AkkIVdVfqmzYsAiGdW0B8GitBD9TQHXFUQlNjUtwOC6bfuh+IxTE91yH8sv9KMscerOIEoWDzv1SceQkQAJXJEAB4Yp4+GG7EPByOXGXEd7YBz8Ak/WvASNbdz6E+QAqAdOhN5tBuGJW7BQqKWp1RWgLgpMTRnsQ2jYlgVgHVldsACp2QQIk0HsEKCD03j3vnBljgc7OLphFuriMtMXLWbOTt6NlDUKNM1k3D5hQxUwRGoGABCaQp0DDFT/xdlNZMbRpXCJbp/BZWPp2bDVjsAOsl3A15IatpsFuk9TXVxsvPycBErg8AQoIl2fDTzaYgC422dl54/BWXEmIv5oWPwLnRM2eWM8CZDQDSG60lkX2wwwSLiEl8k6EJsLUMPS+d0l4xxbkNBiTyPjoBhPowMvjvhghoRwB0oEz4JBJgATKBCgg8KvQvgSwyLhpVG1Up0C8Rm5ChBnW4B1fXqx8LbusUXjwIVAzRfiaPnGuCyL9cQThiruMgBCIIUJCHRHrEUDal2jzR2ZCHBVy8y/FK5AACTSXAAWE5vJl73UQ8FDnIHHoFRNqWER5Z3uqD6mLSxEFlXZrdrO6qy0WxZtJIeLAkuhbroOg4cjo994rA2+/U5xwWIZuu7nSLnncFQgwzPEKcPgRCXQYgRq2Yx02Qw6XBEiABEiABEigagLUIFSNjCe0ioCfy8vao98WN5mVwtwytAcwDUD9f9kGU4KplwCNgTeL6oqpgoRumkTZ5WGJTI3J+AffrW4GMrAPCY/gfOjEY0h8BJNCr2c/vCxQfkACJNDLBCgg9PLdb/O5+wg9LC4lxE2kxC+g9gLSHGtp5Yva+nsarliAB72P7IdwavQkL4HsqFjox4bfQXj3diMgRK9HemSkRWYjARIgARK4PAEKCJdnw082ioCGySHSwM8g98HSshRWUBgJPgNGe6BOcOtt3fkQxZN8+CtoaWVn0yAyMNsy+p57IQQEJLpziwQQjRAcGpDIxDiEBfWfO6eP9b74kwRIgARI4DwCFBDOw8Ff2oGACgcezAseHBMLJ+YkP7cqwWsmYA5AkqJzogvU8VCFBnc1K95iWgI7hiQEQUDzFUz86IfEGR6QGEIWNfshGwmQAAmQQHUEKCBUx4tHt4CARh64uYJ4alZAUSbkMsRVy7t+9TOAhkHrIVhqJoB5IbRtRKwdo+KMDCCp0RaxNUwx8P+396ZBkl3XfefJl3vt1V3V+46t0Q2SWCiQ4CpSJMUhxcWEKUqiZFtS2A7bs8XEfHDMt4nxB49iIiZGEWPRQUvB8UgkRyIpkoItUgR3EDsIgNjRaKDRe3V37UtmVWa+nP//vMxC1tLdVV2ZVbn8b3dlZWW+d999v3vfveeee865CT8mXEAeSiIgAiIgAusmIAFh3ch0QqMJFGBzMHfmHEIrT2LXxrQFfRzkA19GKM9BszAy69EPs+846AqFHZ//mPW847gl+nus//jRqHjV3QRrlyQaXXDlLwIiIAJtREACQhtVZtvfCrdLoAYhjz0S+DaEnQLtECgEUGtADwf+KImACIiACGyYgASEDSNUBvUmUJqatrkXX7Pi3IyVZmcQEnnG0rfutFhfn2UP77WB997tywf9dx7HckLC4tsH4bLY5cGP6l2WzsgvZqFvgAVhS0kEREAEKgQkIKgpNB0BGh8WZyAYzM5aaQRujjZrIewOGNUr3tdr2eO3uidCz513NF3ZVSAREAERaBcCEhDapSbb6D7CQsGKk9O4o7IN/9HHEQOhYN23H7XE4IClsfVyZngoMlnkpktaUmijmtetiIAINBMBCQjNVBsqixNg/IP8yCVL9vfazj/6fd+gaQDGh76MIEYiIAIiIAKbQkACwqZg1kXWQyCWTlkKdgXJ3m63NaC6IFwomMwP10NRx4qACIjAxghIQNgYP51dRwJlBEGKwSuh59itdvPRmz30QSyoiAXVcMp1vJ6yqhIoW4Bw1B6HuvqRfouACHQ8AQkIHd8EmhAAYhh4aOUmLJqKJAIiIAKdQkACQqfUdAvcJ6MjcjlBeyW0QGWpiCIgAm1PQAJC21dxC90ghAOXEFqoyCqqCIiACLQrAbqWK4mACIiACIiACIjAEgISEJbg0B8iIAIiIAIiIAIkIAFB7UAEREAEREAERGAFAQkIK5DoAxEQAREQAREQAQkIagMiIAIiIAIiIAIrCEhAWIFEH4iACIiACIiACEhAUBsQAREQAREQARFYQUACwgok+kAEREAEREAEREACgtqACIiACIiACIjACgISEFYg0QciIAIiIAIiIAISENQGREAEREAEREAEVhCQgLACiT4QAREQAREQARGQgKA2IAIiIAIiIAIisIKABIQVSPSBCIiACIiACIiABAS1AREQgboRiMViFgsC428lERCB1iYgAaG160+lF4GmIhAkkhYkEy4kNFXBVBgREIF1E5CAsG5kOkEEREAEREAE2p+ABIT2r2PdoQiIgAiIgAism4AEhHUj0wkiIAIiIAIi0P4EJCC0fx3rDkVABERABERg3QQkIKwbmU4QAREQAREQgfYnIAGh/etYdygCIiACIiAC6yYgAWHdyHSCCIiACIiACLQ/AQkI7V/HukMREAEREAERWDcBCQjrRqYTREAEREAERKD9CUhAaP861h2KgAiIgAiIwLoJSEBYNzKdIAIiIAIiIALtT0ACQvvXse5QBERABERABNZNQALCupHpBBEQAREQARFofwISENq/jnWHIiACIiACIrBuAhIQ1o1MJ4iACIiACIhA+xOQgND+daw7FAEREAEREIF1E5CAsG5kOkEEREAEREAE2p+ABIT2r2PdoQiIgAiIgAism4AEhHUj0wkiIAIiIAIi0P4EJCC0fx3rDkVABERABERg3QQkIKwbmU4QAREQAREQgfYnIAGh/etYdygCIiACIiAC6yYgAWHdyHSCCIjAVQkEMbN4YOUYfiuJgAi0NAEJCC1dfSq8CDQZAQoG1Z8mK5qKIwIisD4CEhDWx0tHi4AIiIAIiEBHEJCA0BHVrJsUAREQAREQgfURkICwPl46WgREQAREQAQ6goAEhI6oZt2kCIiACIiACKyPgASE9fHS0SIgAiIgAiLQEQQkIHRENesmRUAEREAERGB9BCQgrI+XjhYBERABERCBjiAgAaEjqlk3KQIiIAIiIALrIyABYX28dLQIiIAIiIAIdAQBCQgdUc26SREQAREQARFYHwEJCOvjpaNFQAREQAREoCMISEDoiGrWTYqACIiACIjA+ghIQFgfLx0tAiIgAiIgAh1BQAJCR1SzblIEREAEREAE1kdAAsL6eOloERABERABEegIAhIQOqKadZMiIAIiIAIisD4CEhDWx0tHi4AIiIAIiEBHEJCA0BHVrJsUAREQAREQgfURkICwPl46WgREQAREQAQ6goAEhI6oZt2kCIiACIiACKyPgASE9fHS0SIgAiIgAiLQEQQSHXGXukkREIHGEggbm71yFwER2HwCEhA2n7muKALtRaBsVs6XzOL4jfdmsfa6P92NCHQoAS0xdGjF67ZFQAREQARE4FoEJCBci46+EwEREAEREIEOJSABoUMrXrctAiIgAiIgAtciIAHhWnT0nQiIgAiIgAh0KAEJCB1a8bptERABERABEbgWAQkI16Kj70RABERABESgQwlIQOjQitdti4AIiIAIiMC1CEhAuBYdfScCIiACIiACHUpAAkKHVrxuWwREQAREQASuRUACwrXo6DsREIH1EWAkxSic4vrO09EiIAJNR0ACQtNViQokAq1LIJ5OWjyTtiCOuMtKIiACLU1AAkJLV58KLwLNQsA3YbAAwkGiq8tiCW3z0iw1o3KIwI0SkIBwo+R0ngiIwEoCXF7QEsNKLvpEBFqQgASEFqw0FVkEREAEREAEGk1AAkKjCSt/ERABERABEWhBAloobMFKU5FFoK4EiiUr5QowLIyZxTRnqCtbZSYCLUxAAkILV56KLgL1IBBCQAjnC2YpeB4EEBIsrEe2ykMERKDFCWi60OIVqOKLwEYJJHcOWfaOmyy1e9jC6byV5yAsyNBwo1h1vgi0PAEJCC1fhboBEdgYgcyRg9b/vnssc8tBK52dtnAkByVC5La4sZx1tgiIQCsT0BJDK9eeyi4CdSAQJJMWpDMe4Cixo9ssUwlyVIKQwClEjMsOSiIgAp1GQAJCp9W47lcElhEYfN87beC+u23utTfM9QZYXhj7xj9Y8cqsxbch6FF3RhqFZcz0pwh0AgEtMXRCLeseReAaBBj1MEinLJZKWTmOLiEIrFwoWXm6GNkiSINwDXr6SgTal4A0CO1bt7ozEVgXgczuHbbvdz9r5WIRwsGMLUzP2vyJUzb/+kWEUE5arAuaBCUREIGOISABoWOqWjcqAtcmEO/ptp5jt/hyQvLgXrOZWVs4fcHCC3NmO7MW78lGGciA8dog9a0ItAkBCQhtUpG6DRGoG4EwtJ5bb7JSHi6PI1csnJr2rIsTs/47lkrKcLFusJWRCDQvAQkIzVs3KpkIbA2BRNx2fuojfu14JmVhd9bCsXGb/PpDCKYUs/iufjNGXVQSARFoawISENq6enVzIrAxAjEYKAZp2B/AgDHWl6pEWkSeDKQk48WNwdXZItDkBCQgNHkFqXgisJUEhj76Adv+wfssd+qMlYO4ywSTDz5mxRG4QPZn4QKZ3sri6doiIAINJCABoYFwlbUItDqBIA0BAD/x7m4rY+mBqbwAL4eJebMefEctglYbWr2aVX4RWJWABIRVsehDERCBWgKp4W22/4uf86WFADESFmCTUDgzYvOnRnAYJATZJNTi0nsRaAsCEhDaohp1EyLQWALx3h7rv/dOv8jYw0+ajfVbcWLaSudnLYYYCcYAS0oiIAJtRUACQltVp25GBBpLoAzjxK6D+yw52Gc2OmHFu8fNSqHNv3q+cmFt8tTYGlDuIrB5BCQgbB5rXUkEWp4AvRp2fu6/8fsYPbDPbHjQSqPjlnv2Of+sXC61/D3qBkRABCICEhDUEkRABG6YQADPhjARwA0SywxMMS01RCD0KgKtT0ACQuvXoe5ABLaEwMB991jfncdt4eIlLDNwa2gEUervtzIiMSqJgAi0PgEJCK1fh7oDEdgSAvFsxvgTzi9YkMU+DdXASbBTiDGQkpIIiEBLE8BzrCe5pWtQhReBLSYQzs7Z1DMvurdjZv8e3zo66O6yBH6UREAEWpeABITWrTuVXASajkC4sGAhtosOkkn/aboCqkAiIAJrJiCLojWj0oEiIAJrIUBPB/4oiYAItDYBaRBau/5UehEQAREQARFoCAFpEBqCVZmKgAiIgAiIQGsTkIDQ2vWn0ouACIiACIhAQwhIQGgIVmUqAiIgAiIgAq1NQAJCa9efSi8CIiACIiACDSEgAaEhWJWpCIiACIiACLQ2AQkIrV1/Kr0IiIAIiIAINISABISGYFWmIiACIiACItDaBCQgtHb9qfQiIAIiIAIi0BACEhAaglWZioAIiIAIiEBrE5CA0Nr1p9KLgAiIgAiIQEMISEBoCFZlKgIiIAIiIAKtTUACQmvXn0ovAiIgAiIgAg0hIAGhIViVqQiIgAiIgAi0NgEJCK1dfyq9CIiACIiACDSEgASEhmBVpiIgAiIgAiLQ2gQkILR2/an0IiACIiACItAQAhIQGoJVmYqACIiACIhAaxOQgNDa9afSi4AIiIAIiEBDCEhAaAhWZSoCIiACIiACrU1AAkJr159KLwIiIAIiIAINISABoSFYlakIiIAIiIAItDYBCQitXX8qvQiIgAiIgAg0hIAEhIZgVaYiIAIiIAIi0NoEJCC0dv2p9CIgAiIgAiLQEAISEBqCVZmKgAiIgAiIQGsTkIDQ2vWn0ouACIiACIhAQwhIQGgIVmUqAiIgAiIgAq1NQAJCa9efSi8CIiACIiACDSEgAaEhWJWpCIiACIiACLQ2AQkIrV1/Kr0IiIAIiIAINISABISGYFWmIiACIiACItDaBCQgtHb9qfQiIAIiIAIi0BACEhAaglWZioAIiIAIiEBrE5CA0Nr1p9KLgAiIgAiIQEMISEBoCFZlKgIiIAIiIAKtTUACQmvXn0ovAiIgAiIgAg0hIAGhIViVqQiIgAiIgAi0NgEJCK1dfyq9CIiACIiACDSEQKIhuSpTERABERABEdgggXIYWqxctnKIn1JpSW78rozv/Hv8rk2xWMzK+GEK4vHarywWBBaLc26M7/33kq/1Rw0BCQg1MPRWBERABESgeQiECwUr46c0v2DFyWkf0yEV4HfMSnM5CxcWIDyEFubnlxQ6lkpakMDwBuEg2dMdfUeBAefGu7KW6O1BFjGL93QtOU9/LCXQGgJCRTp0GXFRUOSbGNtJlBbfLL1B/dUkBGrrsKZIXn2NrDtcl7OMRqdYDDOSaltswMUW72HxIcDFov/eWTbgkq2fpdc9bqOe9VLTlBab7eKbjSPzel5ze0X/F9Tz5jZe/jXlsNiGo6MXkS77nN9Sa1AuQnNAbQF+vC7JB8xdg1D53L+rvXgJxwc8PjrOv2I9sU3wHGojar+rPZfHIS2Srfxde0invG96ASGcn7fxx5/xip1+5nlbuDQWtZFC0YJ0ygbef69ZIm59x2+z1I6hTqm3lrjPcrHoD2JhasbGH/sl6tBs/sw5C+fykWoP6r1Ed7cNffj9UPnFLLVzCHWaruu9XfrO9+3Kgw+ZFUMrvnE26hSoVlx8+m/gcuyf0GmVMUvJ3H4EnVfZ9v3RF6z72C03kNnVTynl8hbm5q0wMWlXfvBTP3Dh3CXMpvI+A4r39VgCs6PtH36fDxSN4Hf10jXvNwXMNDlwjv/8cZt48lkLkvXr5jhYlTGbjWVS1v/uu9BuE+h7jqLv2X7jQNCeymWq0s1O/cl/sPyZC9EAhvp/awaEY4o4AANbrLvLgt6sJYcG7ci//TcW40y5yROXCDhjL4xPWO7CiN9fDvfJAXv+/AULp+esNDtrbN8UkopvnMMxHMiLeHbBHPeHHJbcJYZ+/5wfkl9tguhUw27lef49Togl0BegbIndOyyG8SSxa8gyR/Z7/9R982GsT8Qsu3+PJXt7LUCdJ/p6ay/T9u+bvmXFgrgV+UCyIY2MWu7sxYqAULAgm7FuPESxJNaYlq0ztX3NtcANeseFziuWzFlhdgYPoln+8piFM7PeqZUxUKf6C/4QllHP6NXrflcLYxM2+/oZs4WS5R99De0EnUUa19rIpdhR59FR96WsnE17h7ZcxVmPG+E6aSyd9I5x/sq4Z5k7dxGq1TlLDQ5YHMJzCupXdmJlrqumUvW4bMvnwRliDBVMwTR//hIYopvjCFOPVChBQJu3eCZtXTNzEBDiFkIQrktCH8fyzkKQpVq9jPyXCAjz0Uw63g/1eH+3ZShA4JxWSFVNRyyZhDKAAz8EdggEFAYWRsetODFlpfEpy72GeyeHh0+AAe7X+MPBn4N8Ej9vpSCJz/g8XysRWWGp8ACJA2fUfla29LEZi3WlLZ3HWNPX7fWa3rcbz1XMMrw2hEyWvdNS0woI85dHIUmftxIekvFvPuASZ/7CKBoV15rwUKCBxaA5GH/ghz5bWHjhhCUH+i0JLULX2496PWb37fFjOq1St+R+USWuHkXdzL50wtcMF06ettwbb+JBL9r06296sdgRhPibhkIc2AqYhZ8fhVaoXLIdv/95SO8H8XAG6IAzdbmN8mzOSpfGvR3Eh5AnrsmHfUMJMw6DBsvQYRRHJ/1+OKusVwqZF9r25E8fs8mfP2YlzKDmXn3Dsy9MTPv1wvFpC86P2AJmPRfGJn0gyd50AEJz1lJ7dlr2lsM+tqR2YWbUQSpStsECBhzUkM2/cdryz7yEjj/rs8N61I+ru6HBKSLP+dPn0J4CKx27dUNZs8yubUO7Ko5csgIEhBgEEOZdm8oc6NAWAgpAbMesV95okyTeB9vaArQECyOXXXCaRx+Aj6146YqVYSfA/jwSdiEYTE1D3Y+ufArCwXzB2O7DWQhFuKnE3l4XIji79x/eL39qkrfrpYhqvq28Rf4BC1CbqnnWfFZm1nimCyjn3DNR/1SkhgP3MzfwuMUhfNN2gVob1kvy0H6vg/TOYYvDniHA9yl+12Zpgz1l42gUrozZ+C9/ZSFmAZe+9HeQ9yC1Dwy5es2lP1ZoqWxzP3oFb0Ibv3m7z7Z67zlmOwf7XF2XgWpoaZNqXHk7PmeAjgaimE29eMIKk1M29YNf2JW//hmUO2l0eFFTi/Vg9u5qvQoxdHijf/MPXr+9777Hkrt2QiUcr5uAYOhwFk5fscRg1iwTzQAoWG4osUP3mQsEnPOjWDKB0FpHAaHM5TPMTKceetxO/m//t8WtHyrQnqjIrmnBW3Z67OiwdDL21z/nB5Z93+0WdGds4L67bQizzAAdanr3zg3daiueTK1RGEJjdPJNm33sBegSoB7eW+G30RvCrLY8PW/BtqzluKQExiGM5TaWyhZyTRwDfwFCX/6VU5bctt2C4X5UK0a4SirP4z00GGFPxgJMkLz+q182we+qIMpJwNSrr2N5bM5GH/ipTxzmnnzJCqehBVvAs1OC1gs9cxxtlcn7BApDyQBq/Go/4fN2/36jL2sZA3zpKLcAYWXW5k+c90uWp/Bcs1qgVYDYafG+PkvehHEGk5r+38SyHvqp/jvvMGoaUhASJCBstKbWcT5VtkWoVcu5nMWHoFKbwUPRA6maywlV/XAytPgudPzoKIOulFecFRfQEM/imJjNnxx2tVAc60bsOGlIRrsFpfoRYD25JTFmABTq+DAWMXvgTIGGQMlhCGtU8VYT1YK1YlsJdgjJXqgBM/4gFiFYJLDGagPVEzb2m65OsRTaTIztZtlMYmNZ+9kUNnwphbO5OiV2sNQghBgEEhzctndBwKqqN2unTBw8MNsqYV2UzwDLgjYeTmMt940zEBACy3Xj2cEgFuAZ4HIFLbvrpZ2p0+3WPRveL5cYqBKGZQsmFVAPo1OvS2I9U3uJNu2CJq7FWWa9EpcsYlSlU8tFWxmf2lZyT+A6FAyvp1avV2HWkA8H1gLbK1IIWxk+89T8FiHohAsYYItYKkGZg+401vfhTVCAgDADAQH9wGK/UO0TeF/VZUYKQLXJ/1z6/BLF9Z9pXGe16mG9LU/Ons9X9IxFrpD4awFLiRAMA0wyArYjtCtfJsXxhfNY8oYnRQgBIaqWmCW2o/PCs8dlqFZflqjpuZfT2pq/ff0QcPOYhZ7/k7+E1gCVsnMbfq5SHqwbMYVU+WKQmvzFczb+nce88WXvvdWHhJ33/6b13vt2S2Sy1nPrkatkpI9vhMDMiddtBjO1BXQKZ/+Pv8Q4jAcP9cCZbawHarldHLyukTO0QLYdx+IBnMIyUQ6DW9/RWzDz3XGNk9b+FZcyAhiScUYe0uCpngn9SODr2+j0cJ16JLb/Kz95xArT0zbz2ptQX0I9nsXAXmnnq16jK5qJFUbG8DXOf/EUtG7fdf6ZOw76oDL8+Y9bGss32d3D1v+2Y6tm014fQt1NGw4ICEEvfrrqIyCUixA0KYDA9oQCAteo3YOlTvBcsIFY6IICBQRqiaqJcxsOYnVqa9Vsb+T3otEhlrfOfePvPIvRv/o7y5/AgAlEblxIIa3SbmPgH1TaqfVjUrdawohP2wSmxd8QQNiXuGC0sLQj8WOWCxLL80V/RJZLEgUtsmXdpaIh0IUBShL42G3a/IRlbQblK07Algpp/Js/8mNHx3NWnliwYE+PJY/sxrkJ2/Ovfg9trtsGsPSUPbDXj2/Vl6YTEJaAXNoelnx1zT/YkAI0rEjErByKyl9VlLxmTvryugTAtZqoJkWXrNQEBPgMcM2az8Dy56AJiqcitDgB9qV81Gtn4mxn3ubwOQ156yEzU0BivvxdKywRHycXEKivnTji47jaxFMCnlv74Q2+x5KJr0NwQrTsWasGarrBnJvitKYTEMoFqKSgxinn4eJFdyVUbpCF6Hydwd2lahzrkv1hSIxQVRUuXPZoWiN/8Q27/P9+xxJD/dZ9N2ZP+G73b3/K4v19cBPLWhyGXUrXJ1DkrPaV190v+crXH8B63YzRmLRYWfMNoMplisX4Gw8mtQnXewjZiaR4LPoWejfAwIwBUDo5FSYn3bKbwWEMS2dcm11LimaWmBV1YeZ2GHXAZ+By5P1w+T9/22e8cbhFprZDIweXre3/+OOuLu0/fitcTIfXcgkd08kEMABOPPUrK8H1dvrhJ2Ej8xQfdluAZxJTcToHTS88AKC3RU/sny1qVyqChMcggJGyJ9hTeIJHUJkDbBc0fX3QmMFGKXUI9mPQlCTh+hyHV0GcS2MDfS4sxKG94XWpGfSZPzQESRgQ1ib3lIAdCgUIugsz0cCXSyJ0HXYXYjxfcy+/7nkWL8FuhcGWUKbyDA2Q+Rzh2cOjR1fW6rJOddmB4wy/K++DliHEMh40EkXkT4Hpwp9+xYerK9CCJjDGZGCjMPSF33IBousIDIlbyNso6tFryW7xe7eERRnYkNDk3J1szUWiEEHZAGtEHJi8wtFJ5s6OWWkUrmFHtlsZvuOsTDagBFSEHm1rzRfo8APxIBYRw4Dqw6nnYYh4ES6LkzNWGoHarQ8P8BAeYCaq764j0EUHVl55LH/48NK9yzURS47oqD/o9UGvCFehsmOtnaVdlwSfAXRuFCrwDFS9K/IXYc8ziqWfwQwE4y5fuuv9jfe4QB3iGVESgesSwDNahPBewM8cbFzGH3gqsu1KR+0nvh19K+19kNAKo7S87TBPU6kAADwlSURBVKJLL0MgwCtU89HAHc5GRoCxSbRNHO9tF8IB++kAkQ4Tg/1RDIIhxJqAkEIhN46yeD8Pm7QgkbRk/9L4BFxOLFMAQV9SnI6WBSwDg2I8W3QTLmNyYzAu5jhAzURpClEZYXxK+4hyiR5JMJSmzIzyBDCJ4tKPu9Kzb2OKbtPLCIMht0vh5JYp9/QVGGOGtnBkwo3qixA8tqMcITUgLRCzwm+i8tJ0AkJt4W74PWULJq49oSEFfTBQxFoTDZUKF+AXjQ5x9Gvfdc1E5vB+S+7Z5S4sXUdvxknQWKRx/PKG7Rl20AsexHkaHaJN5147hQBVV6wIt6SZ51/BMwqra/gwsxeIQbsT0MKe2oJ6MKOg0OkJfRDXtjeUap8BZMTAOozZ4EaV7MSxdjsFF0raZpTfPOedcHLbgKVgo8Mq6KIbV4t1ZhvipZNXEqD2HG2hCDuDCQQ6o2Zg4qEnI1dFuAAmDvRXBsjKqewDahPOL+eiQZN2SRR444NYq7+V2oG4ZQ9hzR6NLQ3NAN0IDUa0DIHMfiQBLRd/x+G6zng3tCPwsMjoeyKDUwgI+Mz7aQza8WUB1nyCiQGZAZTcbRjlysLlN8QkxGNM0LAQAkT/rYdc6HDDYAzwRbhFUxPAPm4ecRkoZS+cvYy+bwYCR9HCcfR7eD4jo2EIMfTIqvZZHG+QgiEYY+J8FwZw/YWLl230698FPbB8/7vcFiOL5yuzd5cf38wv7SkgVIhXjXlicAsytDuql/LPn/Zv3/jek6iwnPV/9D2WxbJDBirWvYf2uTRJAaHjE571/MVLgGY28l9+iI7haUj+Ocs/fhJooNI7Ap9fzFJplBNkIGIzLV8jjD7V6xYSqD4DRi8elgOdNDU0JczaLv+n73sAqctQC9PquvueW2zHP/uc93c0rlrW3W/hXejSW0Kg0gAYV+L0l7+Owdhs9sfPQWCYhtttP2bYVPlXJVGUsOatlxf9QTiJ5UJM5MtjiJQIV/XEth5L37Tf4tDybvvkr/skrv8olriGseyFCVxA7e8WJA7e7OzoIptHMDJq8bicwoF+6kePYEkCAk4ee0JAG00JIdgLF1QIBvTOcG8WvK+6ecawTOK5URiBwJEbnbI3f/AEPkrY8L9CTJbeLtv9Wx+VgOCUmuGlZuCqWq0mYGVanobUCgmQalgG6Fg4dQ6lRVNBxbpLGKRSuqqw8VQrvxlupyFlwKDhmgFI1iV4EsQwkFDbwkGfSzUBNDBhCK+EAQoD6CkoOfM3Uw3f6AO9bphAdVay4YwqGSyvI8x2gu0QhLH2G+/FeirXc3FN2pPw0vNvnvWw1/EuulhyLRaztGXrvPUqmvJpLgKcfbMtFKA5KEMdv4CJAtsEtYlBP/pERI70fpSz5FqhgH/XJmgAUnui4EHBYSwPoE9JHdxlaYSljmNiEYdAEAswR8X1fEmN52+VgIB+j+VgsCQM9a7BYxh4Gh6m9yDYGPq6EqLBJhnZFN0eHydq+crUjHC8IKDq8kPtswapil4RiQSWQGBrxYBYhrgKfM4W0L9SIEo0cYClttYg1LZVvudsigZcnvZDhYWhP//6BQQmOYvGW7KLf/JV/2roX38WgVD6bdu9d9rge98ZqcbqFNkvunjzvc7D0KgEQWD2hVfsPJZf+JBM/xBalnEIB/RfhqRMaTq+t/2ihTVbbUQublBXusp2Wae70cKiI/MZD/KJYzbHFKljQ5t76RSiyH3ZPzvX9f94XIrtv/0R677rbZYe2mY7PvL+qBOtdoR+pF7ajUCIWS/V+Bf+/Ot27i++7a68RUwamGgwntiHvoDahdqBkH9isHSXRLznckJq54Dt+MN/5MLl0AfuszSjelIwgLtjdRDGodHgygyZ5xalquFgGpPC6p4+A28/5qUp/86nOFTAlgFBlBghEsLEyAMPYrmiYDM/fNRmf34SQa3gjr8t0qRWny/X3mG48b9vhZCNG5z6h8chVBRt7okXLQE+XTcftNv+/f8S3TXGp61ksBr6jhIQlgDwxogXqMgoATJWfzhN45Sow/TNP9iZokHHYrVi8pJc2ucPrp/xB/fMhg9RCuoxGA/RWA5BjNyFp33uVneyGgGfyWGGg1TGdNHVqujoPXGGxGdGwkHEo51fK8bbFBxp8e+jY60w4H3nKgB4DFwPfd0fhogem8bbDebfXIpkkDoG86rYtlwtm1Vy3ryP2OdXr1axqaD2gIlaZV9SrVlWofcFdK0Wm8fSyOLnkS1CNZvo5ChXGk4y6BINvWkw6YbITfxMNa+AwIZF69CKVewS2HX8wxtrNyo0y33CKeWZTf/sSTeAyf38KRv58tfcVWXgEx/y7wbfi3DAA3UK8+c5bv4LjXRojcylg8vf+5Eb7sw98QwiUGKnQBjqzF+Z9EIFOzHDHMaPC0mLj83mF7jDrkjrbc46omUtahDqrEVYxjNSj6J+ucg8WOncaCiG2eLMw8/Y3LOvwAgsZWN/9R0XIBlmNkC0yx7s99CF/R8YNKc6A1uWtf5sEQIuDNAKHyr20//+z+BmO2FzJ9700tNmxV3++Jf3y2/dlJ83Bu0C2kDP+9+G4FxdNvC222wAYdNpQJg6CLsupCQ8EdiGWjk2QIKREWFYGIPgtO+Ln8NjCUNG7KRagvH2HDaEu/Ct72MlLo7Q7iNYRgBLjCcxbgxXM7+M9WKy1QPhG5FmS9DUhPh98n/9P0EIO8L+8y9iOeNqEQEd46a/NLmAgE6LapdGJkqMbPS8TCWq1vypK+4Pm3Mjk5Klb99h6btu91JsYyfa6gkSPAch2hzMnDzlkuz0w7+y3PNvAANciPbRXRGdPrw/fMZYO3to9XtvgfKzPXqbXNYZN6zo1eugL4Pd+FuXQe+wgL0myuNwR4N2aTr+KgQX+KgfPYSws/Dv3g9rdLiYNVqAeatAetcoAt4E0C9QGJh69iUMeOcjzSr6AWoEAtoKLE8QABgQqTQSbbAUgyFsMNBrGajN+973a/gO6/nLPGFwRusmPAPxbPR8ZBkOHim5Yxv6T9ghwE6n/C3cHUCW4T5ZhjY64OTW95Z4S8B3rwec55rZPDaHgrAx8fQL+KBse6G5bba0Sq03WxE3sTyVgTDoprooQlMeROVC1ZR75mUvyBUICAnEt0/CcCVFrwcIMFm6q1Q72U0s7pouhYZH9xyWbw6GZwxCVILLYu611/3zwutnYZsDERf3kRjYBukWarTKhimev4SDNWFu14PYFmLYmMgFdapC0U5yL0OQpMskjNjmn30e77OWOX6bI8ju3+uqZAqgvmTVrmDa7L5okDj15K9cQCjNQCBEciGVkyYKAsuSB7Sbw1IkPMQGPnuPz5K3v++dsGsZtK6D+z2fTliWpMs890DJ7t5lu+//GHbaNBvth9cDhIQigpQVxqbcSHHFngzUylYYc2dWGoBOP/MiAs+Nua1Gs7hASkBY1vD5J337K8tOqESsycP45sp/ftCPvPTl70FizNvQ7/y6bfs9RGOEFaoLCKvk0ywf0aiGHfv4I0/aHPyX88++iF0WH8CdYfvSndjzALHJA0aU3F9ZOpFQ0CxVt7XlQGfnHRvWXmvVpOMPPAwVamiXp+m6NmsZ+HTv/B+/6GXd/Rns+QCDRqOFOm1alFqCwMKFETv9pb9yzWL+ArZmns37ssLihkq1dwGBgTsdFi9OWOb2vTb4uY/7tzs//TEELKoES+MnHVD/Vc+exLFe665s+12Clm0BcROmf/a4zT8FbyBsKBjbTk3bW8kNGGmTARuf+ZfO+hcjf/8TaG17bPjD72kaF0gJCG/V2dJ3i+tGkXoo1htVcBy/Y3N4jwlSiLUnQ4CPwqXRyEOim2FCIRliMK5asi7NdPP+ojsNVV/0zlhAOGRKutyW1qN94QFPYAthuq+5tqA6Q5BgsHkV1EpXWnwWokJz8yjDTqpBEm5gY3B/xCyyDHsWpiKCawW+Zg2BE67EvlyCQDdMm7ps4lfUy/UIsJ+goZz3FTwY3R3rqUwN0GqJGkkYInL33CRC1ycGsCSZjGy33Nh7tXM66DPyDGCrkMAzkMB4EOzpBis8L+DmaRVN8+LmUIz+iMmca3xxvqctFrKaV0Dgcg5G4VgljGdEa4te8bAE2FWymoJBuAA+9SIi0f0K5UvYxT1fxXpdaLv/5ectfdsRyyAKWPfNh6qHb+pvGg1RQJnFngljiH7GiIeXvvxNrHnBqhh6LP6jViR5bG9UrlUa7KYWWBdrOQJUK/tIwpJjt84SbHUufembfh+X/tO33NCt+95j1nX3HZhR9tjuz30SPuOwXcD69ApVq5+ll60iMPPq65ZDnIPci6/YzPeehtYAwYpgnBz0wJVxlRROzFoJNikDn3qX9bznTkv1D9oeahDQjyy3N1jl9Lb/iAz2/f793s9exh4MiQN7fE+hyf/yKCaVGNGqdl1VEjVjy8S3f4pliUnLZOLWd9cdmIGGvo8D2W5Val4BYauIXO26tZVEFRvdIrG/A617iz2zLiBUB+etVK266gr3wDKwPNx8pDCOMKFzMBjCZii+ngjDMj3MV6tofX5dAt5f1XZaCKY1F7kIu8HWNCLO3ZGH4FD0mRSXGwJ0hBIOrkt2Sw7wuS3dE2E0d91E17wcZrdQMHATI/e2aaHNh657f3U4gDEk+HR4H1wdNzCBXM2Wwy9XOaaM54bRfbnswHObQaErAeFGGgRqLob1o2APnhK4tZQK6BzxlF362gNQJyHQxvYByxzY50FFtiOkJn1nMwgS4rHEb+R61zmHhocTz8ASFmnqez/BDn5jvkFJ/vIEhISSb6hS7qLukEdULOT5Vqk5CaBzYAfRMvuBQGCOVTRsccPMcxviz2Mdu/Tjx2wW95F75Gl/Prre9Q5sFNVrWRix9VaMGpMIsetLD81ZE21fqtnHnrbLDz4CAW/O4gdgP4DBakV9cFkBEyKm9NuPWApeDds+cK9t//iHtiw0citUzMC9dyEQ0iEE4zttc8+dwFiBaIyw2/HIi1zCqQoPlZuJDfVYfDphM6+dtfN/+U3fgGrvH//uyvrYxJuXgHCjsH1GhM4QwkJ17W3mZy8jGmHOkge2Ya+CM9hKutt6P/Bu34ksWoW90Ytd5zw0PKoJmUZ/8LDNPnoKQgGke4T45H4J8R1Q7V4nC33dRATQcVAlv7wDaaISLi0KBxW2NSYIzJaO+e54hZEJD0A2BUGVEsIAjkvuhAEj7q376C3+2YrBiHkobRqBhXOXbPrRF7GkgFkvvbdC9BTLBi4aqPrOiCgVt14u45D03t2WPXxg08rZihdK7Ro2/lB7VkaERv42xD4AZPzg/bLE5eqg3G0L8GqYeuFVTCqHcUTFdmHZsZv1pwSEjZCu6oAqRn7BDhgpIqIWtQj0AQ7zeZt+6AlvGCXMqBII38xtSTN0j4RUHnAHsuUP4xrKs4DNU7h8UBjBDovYKayUw4Yg9KVFoo1BYl+0pbV/UCmbv9eLCDSaAPs+dmroDAMaM8JNLlGCdwyelXBy2gqYfc69cMIm+OxAu5DF7pF4CGC1vRPPDfZ9gMdEouJj3uiidmz+6HsKNLBGKmEPGjeMW6BggEFr5bjlfRU3KqKKvAc2VgGMT1PcbVFpTQTYzw/cC5sCtPMJaGuKs2CJkP+LQnUlF2oNLYXIvrk8+nVo4OAhx6B2Fsezshg4bU2XrNtBEhDqgHJx3b+fhox40LCGVLw07p3iqf/5z9BdFq37N96O2NuDNvCOY7b3n33B/YRT2EHyBuQDmz1xygoL8zYBt5jLf/MgntsAURBH/U4ShwYQxAZBPLyjrsPNKQsRuAECHhAmEVm308uBae6FN2ATE9r09BN2YWoOWq5u6/kUfOiRdt3/CcscOWDpwQFLHI6C0PgXeqk/AUwuZk+dcYEgD/fG4tlR7MzYC01jjYti9aoQCujlUB6hQBG37b/565a95ZAluS2z0poIJIa3264/uN/jzTBK7/zZaSznQOuWZj+Nwb+SKDBQi1C4MG5zj52y8rumrTiT810u3Z0SQsJmJwkI9SRenT0xT5fG4Qo2ABcwGgiy8qFa5XJEEdJ7DG4sIR8yzrQYNIPSo58HAaMmUVPAiIcM78noW0xhDpHL+B6fxxmwBg8xd1nzxOtKOIhY6LU5CFQ6QQ+exObdC/sdusoNsu1G7b6MHe5CbIZTgoFXODOL54cdaCRgUNOgpYg6VyX7E2p6PKEOrqVpDND/MGImdiP04EcUGND3KK2dgPNiP85lBkZYvNbMkG2fHnyV8SLE3/Et4i0BYe11vPYjWcEu7WGbzz2QytFBFk5dtIXXL1rusZft8p9/C51f2gbv/w00lqQNf/SD1vv225E/94N4y52SF8yfH0F0rVFIlSN24StwJUPejGQXTuWtnEJvS8GihAaEGYAnfK8kAs1IwDfr4aDEJt5LLUHZ5p6MIpSefvg5tGP4ju8atNThfQhWlrXd2Akwls5Y7y0wjNs+2Iy31JJlCsF55rlXrQQtJAP6xHfSV78ijNXcUdULilEz0x857kJaFnWTgfsetzpWWhuBBPr0/jtui7TG+/ZYYQYxQ7DUFgWwiyaOtTn5hA/7A9EjaOJXz7sQPXj32y2JJerNThIQGk2cAzZCNZdzcA+iXQJ+F+DrGkumfcMkbo7CFKc9AhrN8uTuiJAkGQ55AeFQKSAURiYtHMlbsBuBOAaijhataPmp+lsEmouAjymVgQVyLWUFxq1nKlyAK24hbyEHHtjpxLux9kprOB5e2SPFD9RLXQiE3E0QgoLrAcj8WhMLfo8+iMe4phOzYFaL0hoJkBv3pKgKVWtWvlQM4KHB2SqNjQSENdbxRg+LUa0Ej4IYgmAEXTDwwUM2+8xLeOgCO3/hkl356rctjkAy2TuOugFicRyW31Ar5U+dxYY52IN8fh4BSqa8wwx6IRhQ4md+13qwN1ponS8CjSTAjpNhzZHi+6ABKyLyYiaJdg4BeHrGLn75q2jfCBGOvU4S2S5L7Rm2rl97h49lvbffalV/c/+gkeVss7y5++bCG2cxk5214sRMNPivZp2I48rzReyvkLKeO293oWBx2afNmGzO7cSs646bLNjeC9fHs5Z/5TSE38hlfvH6XI7jkloPNn/C2/zpc97n97/92OIhm/lGAsJm0YYWgf/wNMJHKOoU86+i8tEK5h5+FZqFnKWP7bEB/OaOavlT2E2NWoOXT9v8K+fhCZGxxE2RiinGGVUca4JsTEoi0MIEqrvbWariCIz1bfqKc5fAsacfgZtkaImDaPcI59tz1202vHsHZOqY9R3HgLWacMzJMGa70Nnhjea5qzYN9DkFeELNY8LhAa6uxgkaTUaIZRyX9L5dkbZh2e6Mq+avD69KILF72NLw1ClcgScagtjFMMlbkahpgM0ae/eFMboII0H7vBVJAsJWUK8M7AH2QmA4zdgwDBXnYbgFe4QiG45L7ojJjd+cUcW398ElkkIB9bKVJOGgSkK/b5QApyhIterLxUH3aoPGjV7reufVtme2c4QFj+/ojp6PbhozJuDOO2f5F1/1gX8yA5diuIElhwctBmNfbppGOwUXqrEfRAkx7RlAjBo7bkamtJQAlztjBSzjYLutGCYvi+rv2sNYJ+yDoMWJQUAjxcX2UXuc3q+ZQIB26nvgYEMnCsHXnOSRPwRmT5Vndc0XqtOBEhDqBPJGsqnulObdFyZJJewaOfngU55VAMEAUTN87SqxB1/WdqA3cjGdIwLLCNB9jcl9reFV4DNutjukLdtsDIKJD0LoP2P9tK9B+Whxj2ilc8+dtJkHn4WgHLNzg1mfgQ3d/yHLQv2dGR6y4Y+8H4ZdRZvBbqWcHedHsEkZjjMK10pvEcBgU0JMiiJsmlxQSEOIopBQmzixZZtAWGVqZCiIMW1Zu/Crt/gL2naCO512ZeB9Ru82sL1G26Tgzg32mNxgdAtuX0+O08eDwLTZs6boqtFrRVB0Nxh+QjVTtTxbJRwsSq0sS21h9b4tCFSMpriWH+mPl90V67/aBpd9tSV/oryxXnZZ0LhhU6FygVIEGiYFCBoAz8HIEb9d8FnF4HdLytzMF11P3S72Bc18Qy1QNnJEe22V1LECgodHRocTTsNdEHubc83H1fiouRjCjkJs9kGa0vNmJV877Y7sE7aqY+a6WJluOEghDJQ4i4hl6YdONSONZyrxFjYLiq5TXwLooDiAcu0/fXiPD7A9x2/xNeb8m+ds8gePo+nDU+bSGAZgHAdjKRcgODhv4rNQe9N+XcoC9CHH+i0TZ1cx+OVP/uQJ7KpKrRu0Csn/6HJOCM8gygdlvMQZNExpCQHGMqC2soQNtmhjcN3ENrNFa+DXLVubHsA4CEwUeJlqlwH9g0166VgBwXuQEO6DswjQAl9gLFSaYR9vpngG76N+KJrJ88PNmsWvR6pnueqRvC1WVAS4z/L0vHuYlRBrARKCBdNYA6b3BYSXGLcrZTe8hn6lHkVTHg0ggMGeCf0+X91oNuhBmGOsj5YgHMaSEJwvw1gWA23A4DgQDPFUbP6zwOLVJj4bVVU4Ao4xlaZRTroQz0OLQEEfKdgLbwgKtFguuZYK1w/u1BcuL61jJkuhUakOBIhxPYK2jzv+oNbh4uvPonkFBDDBUAXJtY5wKAmzV0RHkxjsxUyqbEMfvc9633abGzTNVyxGx370iBXGEFoUHWQ4i0GSfr80KETy9dGtGMTXX7fXP4M8GGOdv6EtYMTH9C07rOvD7/QOduCOW32jqTz2fKBL1MLImE388Ak3anL3tHbhcH1Sm3qErzfSR73eQik6+TJmjuFk3hLYfXHXZz+C/RIylj10AGvM26x07DbbjoAsbA/TL8GzhgF1sGlM7uQ5/6x0Bc8ENQn0omEERAgSW6ZVoDaBCW6SruHgMgMiMzJxPwcuiVFIUFpJoIznNujOYIMm2HEUaai4SuIEgMIY7BMYM2EBe74wVTdt8j/0sj4CHNMYMZT7X1Azm0b7rAq8y3JCj+xjTTwTTci26jlrXgHBgYEoDWXqmdjpol4CRixEZ9n/7rts6AufdreT6RMn/UoTjzwDt8NR/758BQJCNmHx3RWVwlUqtJ5F3My8QmgLyDgcm4NSYNayyd3Wdc8d3vEPf/63LAEL8annXrIchIT8iyds/G9/AU0LlhroqsmJpVLdCTCsts/uKMzWO0GlzCBbhv0R+u97p8feyOwYijYO47XedZdfMf7EPgQ2RFhwdGZzJ8+jjWB/kfOMx4+onbu5GRiN19AG3EMA5dxsjVJFOHWjOZfdIax4yfFSb8Gqmm8b/aZXQgBBqkRr+qslag3wPZekCozBwoQ2oXTjBEJ4jvDHJ6p0cbyqh0307Luwi7db5T3S5ALCjVfEVc/k4iSWFuLdkJ4xe2KEK1px0286VdlFru8uWEXv3YEta7H73JUJf0AWrvABwblVgSWG0bHVhAUOOOw8+b/MDj5u6SM7HFWqr8d3nczccsAyvokUiGAw4U5vARglwaYAoaCch3vUVRv1Vanri2YiUGm3ZXZUaPtcSoBz9mIJqcGIY7mNgkrXTQegWYLxH7wDFnbDAhtPysIY/OcxaPj5sxAw0R7ohuhpK54JF07QqJXWRgDCVQKhrmlXUODyKrW0cCutLHsvzQP1SQGhODHlApgbgC49Qn+tg0A4OWXFUYwpiHdD4Qsj/+pns6+GgMbnkMdIg7A6prp+SqktGuAwMN58AKrJlCURVzwBtxP+pH3/bUR6vfttft3ZV07aOGbPJeyFcPZ//wpHVXSokKAZPAQbzrjB3mbPnDZAhMsJ/oBzOQG2F/HtXdb/xU+68deuz3zMuo4iyhfux8OC1lyn66ZDhhVqiyOATZhHEJsFDB44F5/UHKW37UKAnVHf24767XD3UaYStqCdfvk1CJgh9gT5hi1gwJh/6SS0Sudho4C97vf0+nEBIyNuhZDgV9fLWgiwfjO3HrQEwlwXMWAVTl6MZIPluwUiHkUADXcJy6wzv3jalxa5hb3SjRGgcejsky9AI3fGY3oE3dBK18a2YbZU6NC+Bu6lAeopvX+3H8O9e7YidZ4GoUqZElr1p/rZst8UKFipFPJc1VOdffO4q0l+y/Joqj9pHMP7odFZlgZc9E6AdIofX+9GwySS5QKCf8gb4ZdKnUmANhGsf7Yf2uSgLVG9j7moG7Cuy/CqMwk22V1fZebaZKXs+OKwz97CsaZzBYQ1tLwu7E+f2bPTVe07PvJBdIYxG3nwpzaPMKW551+1ie88BkOfiiYB+bnVNCu0CRLdOMtQC3NJoTwNdyZYeQ98/j2WhJakB/c1iPVnCj/8m0ZLiV5YfleipS0vPo3VOHMswVhJqTMJ0Gan79ituPmydf/bfwOBEuvS3GUUz8ICVKYj3/uxg5n9yS+teArq6GFombhfCNSkHjG0M7E15V1zw6We47fhkQ5t/vlXbGYUESd3oHer7ItRLbSrtdGf0TBx/vkz7gqeO30OqvGEJfp7LNEXaY2qx+v36gRoc+BBqdCPzmMPjLmnT1l8CMvb2CVzZeLSbsltwoJDZRt8x3Hwjlsc/fNWJAkI16AeYAmCP0zVrTYTz2xHWGwsMWDNtZCbsngui+clEgooIHiAI56wVYZSNCxigq2FLylgfbGENWOYIbq1dwy2BInh7Za95bCrsgLYYlwvUZCozh6vd6y+b08CHCx8PRS3F99Fy2o0dSzLBRwksDUz4/UzlcZyWIGbtPhIL3YbxXPB5Yau2o4QWogWWpbzm2rDlyAFAY7aIPYX2O/iqv0Vv/dJBl1IsT8AhApPOFdpHQSoBcBPOE+3euzE2wcNbnfEdkUutP0yLAeDNSMuUiBzYW3FgY3/QALCWhn7AxHDvt5HrRsz8L4De20Axow08JqEFE4Vfe7F17Ft7QQkQ8bbJtpIDQvFQ2MTB/BqQI15ag5Klj6ETUHu2WOM/T1QWU/OwG0x3t9nacSs9wan2m9svbR57gHWRZODfb4Pwp77P+F3O3j0Zhhg5S0Ht7i5cxfRIRYs98LrLhT4YMSOkksTDO8rQWFrWgiEve5D+zBgmY1BwOPk4aoJ/ZovKW3DDBbC3uRjT9vca29Y/6/dab13YnardF0C1B5c/t6PfHmuiOchgIuxuwovm0T6JAzCQXwb9hYZ7LHUQdjHoX4ofAfL7UOue9X6HKAhYq0c2bEhdcOQj6kMQ8Zy4cNWmpi0wl983aW9/AtvWPHyFYRNwOxpDx4oPIixHnSEVDBc4xn0DDf4Es5F/sylC/SxzVv2OAwL337U3RR3/9Hv4CGHwRFD6iqJQJ0IcHbjM5yBfuNuf0zFd9/tv8ce/aWFP38MkUpnbeaHv4JqoQy3OmjjEDuBAbfoX6+0NQQoqGX2M4omqgMaRZ+twlPhqgl9X6wfmkbMaCeees7KsEFJ79ohAeGqwJZ+QW+4Sz/4udt6leA1FPSh/a824HMSimWIYIACQr8lsXOpL+NUY34szXZT/mpyAYHqyGs03E1BdJWL0J+VLmJ4sNI7truA0H38iCV7MygyHrkcVHJ4EEO6gUEq9D2+K0LGho1OKuo9lzjR8VIbkNwRbQXddWSPKyyytxz0csWz6ABQToPfeoiGFiy3mr3K7eljEbgRAh5IB+0zyQBMsG8J4T7b94Fjrs4u0guG66vQupXm8/isxl6Hqmym6jMS/aXXBhFgGGoGkooP9Frm2F5fSi3mFiL8qw1I2DiO/RndnnlQcRou4PCAYN/DWClKKwnQ84dLCoUJxA/heMC2Ta0Bl91Wa+c0BIaHGZfu0tgWOrl9AJni+C1MzSsguGAAozi6FTZhYljaBH4MEvi+P/yCl3DhMx93CXDqmeftwre/j/ehTX79J24kGNsJI0CGfuV+BtfYwWsttxriQfZ1QcQkCMfzljw4aH0fvtdP3fv79yOGw26sF6cs3rM1hi1ruQcd054EqrY6g++71/jDddTSP/99DCQw8P3eT2weho1zz7xo41//GdZg3+p+Yth8ifuhcBDaqvXW9qyR1e+qyrjnfe+yXdhhsPDmeRv50reh+oamcQD7V9S6quJ9EI9ssXKPvwK375yNU/iD7UkC/d/Oj35g9QFv9Ut3zKfTL5+w2ddOwTDxjE0/8Ev0/RDI9vVDAKi1yXkLRzieA9sZ2/7J99mOf/qPPS5NmVrotw7Z9HdvPaGbfuk2vyBn+a4yogQIDcKy9aa63D3zZOAmBn+qaBXqkq8yEYFGEvDnokHPRCPLrbyXEuAseLWZ8NKjOvcvjuwtzkcCQh2bb3KgD7mVbeC+e6zn6C1YfijZHIy36B555UcP2ezrp600Pm25h1+NNAlDkNQ5Y0Js+6pEv7w47q5IA0TsrFe+Eu0N3v3xO2EImbXBu49b/z1vw7kJyxyG0RFSAmqpAO6KzFepNQkwSiFV8ZHFuPcyrXkjKLWroLERFN7Z8G+8341pw0982Mr/3R8iWMy8XX7oUZdtxx/8heW55wO8buiWyyhzMSzX+fOhgahh9d9/9x3WffvNrtW58q0fY6kBey9gGYFG16vtOxMMQBPa32XTjzxrs48+Z+mDuyxJ2xLUUR+MFjt9uYHP7PijT3vfP/atv7fxf3jUNWOJQ1wCRptevnyDCV5YQHtHSh8/6M98D2zH+uCGGjX7re3HJSB41dTnxePCIysaliz6CGPN3zvJZ54zO0PcZSvmsXaXxxIFYii4ISPtApaHL6Z2AEu09E7gJkqGHeuKc4yFjwSrVm4eld69E4aIt7t2IgXPBKU2IVDVPrXJ7VSjxVWXH8y2+52FEBASJ193F1rq2Urjs9Edj6LDxC6SCS47lNFBws1rUeBthCauXTjfwH1wGZI/BXg3hYh3EKtdWlgtPwxwHOQKI5NWGhn1GAmFORhGczSDOrzTE/v6IsIol9Bvz58fsbkXX4OXT78ljg65InlVPpj8UYDmc0IDUG6gxqWbZkgSEBpYC+7HioePkjgDE3UfPmjF8XHrO3rEZ00zr532/b4ZpyDEtrX8sLpbWrR7ZGipXdvgmtgLa/G09Rze76Xtvuu4axDobknPBIZRVxKBliFQXQ6DlqsPO0ii1Vvy9z5txY+NWxF7A+TOnPMZ7OzzJ31HyTK2oA5nYNRI90jGGmHigKRUNwIJ7Oa55w8+6fld+tb3EQRrGt4m6Fuqnk+1vFF/QTfW0XEO5beJv/+pnxdHYLYErO9pA5VlX8V6rj2vbqVtoozY94JBAa6Ms7A5oFH95Pd/it2B8777bWLbEDzZMBGkDFCbqs8APnOX+DBmQx9+t++qSu1zsyQJCA2sCUqTKbdENRv84Lv9SiVIlzMwXGGUw+JX/tpj3OdnX7XCa9g0BeqmciXWeTDc694Q2bfdhLjphyyFDZT2fOEz/tBl90YuZQ0surIWgcYRqAwadHvsr/jSD9x5h19v/sqYjT8BFS22xc2dvmgGL6DC7JSVzk9abABulTsii3kaCSvVj0AKEWN3/vFv+3bgl7/9AytdmDTbDYO6SgAsX26oXo7LD3BVjUNIKKEfu/in38E3oS1gUIxv77ehD94XCQjtLhyQR0VOXUBE0Yt//yNscFa2y1/6Lrw8JiyBDf/i+6DZpTCwTPPlHmj8jEvB3JYcm+AMf+JD1n0HNMIrpAleaGuSBIRN5s7ASrRJKKNh0D0yzM9bMDNniQz8jLHDYpnuMEjUGnBmRWGAywdJBjSBTQO1BXQTqz64m1x8XU4EGksAthdxRC/FEGRdB/e6m9gCltOKEJg5G+UW1J6gDmcn6wNX1d6mEwakRtEnSwxY/Jfet9Ovwh08S7BH8ABXy5cPfEbM6TP6qm1RjAT2bWX0Z8XRMZs/fT76rjJBSnBXwnZxsQYrLiMAFaIizrgb+QKWE9h3s00GFGRnsSU6Yx3g7yXCAf9monCAtsxgY84bn3NCSXsE/o41ycjcJMWImHXCK20T+u6gWtVsgPYDSKV5qFBpa0DjtIqAkETwGTaUgEYt3gFC0lRH6Lz00r4E0juHbGjHe/0Gd8B9js/JzMsnsf/JmOWgebv0je+5oJB76KXIfXgYu4pizwcGAotl1Z3daMsIMIBnuXMgBq5D/+5/8oHu4n/8ml380gOWQBTFYDiyL3AjuxpBjINgHJoGpumfPOXG1FP/9WE7nf0LS+4ctL3/7T+BYBDY4LvusfRQe9hJ0S5s7GcIAob++srf/FebevRXLqhyKYwp1gcbgqMQmqhdoCBQk0LYknlsH/b1UwvW/e59dtt/+Hd+RBqBkbjDcDMlPVFbURt4wFwzVZGoqS6NZkIIXsKgSkge9ZBSe1Uo2Ipy6poisNkE+GxUByDOpHB9n4lxNoZnocznA9+XZ6FBQLx6evdwTwEYLeB7HBw9Pptd6va4HrkCOIWtKFGfgGBwCN6zpkSXa8StKSdxjtdV5Tzmyfprk+S73XrDxA1hAzvGpeFEjiHumfhV9MI3qyefDM5G+y24ES4Pq7b71U/Zkk8lIGwJ9qUX5QOZQGfIvi1BlyEmNDhvaNFfehWBjiWQPbDX0nsQ2vemQzb4Trj4QiCYfu5lyAQlm0TQpbnXz8DId87yj5yA9wOC+gxy9gZpgd4+lY3UOhbeOm+cwlnX4QN+1t4//h3b9rEP2MKZ83bmz/4/CGAcBCGUcZmHxtHL2MZ6sYwA2wRfQkUOxcuTduFPv+IeDqNf/S6WReOWuemgdb/zHZD1Auvh7qAQJJJYQq1uBLbO4tb/cLQtn/NjCWv2zTOe/xw0V4XJaSteGLHZp5/3gTx/4QqWZGB3MQ6PNBrOgpvvr8Azlg/0tC1jRF2kxHbalpVs56c/bNt+/T3Y6TRtKQSqir5svuG4+UoUoeqoVy4lMPnrovTeUQh0syJwVQJxbDUdNwz6fdhoDHsAMJXwnDBcMDeFyqHjjmFprjgHw7o5uEfSsA5ukgGfK/j1e1qm6o0+1OsKApiVVF3sMjcfwvLBDpsD/xK9SOLgihDz5O4h25ex9X6MnRg1OlShz83bzM9e9UvMYntjqtb73j9ncewDESB2S9dtnHFjIlQxhFxRlq34gAM9r4vYNIwHwZQfuWLzly7b/Gtv2tjfPuJLWeWZgsWwMV5sXw/cEiEYQdCp9uN+El/wmSdovcJpCAi43RiiVNK2I4W9S3rfe49v9ud7lERHNt2rBISmqxIVqOMJsINFZxpNZRpHg2rfADEG3Ie9cZepe840BEvCb5+7EPbfdYdlYOxbmpq13soOhTOnzlqJ+z1cmbDS6JQbx0Vuw+ig20jVXXewyzLkwJ2AEV1m327b/y/ux8Q4ZuPYrKkwO4dtvSetODJeYYsBEimyT6hkwsER5we7K+HeOctGmy5iX4K5p57HIAxtBDa243CcgtAX57bz0J7GsXcHcrIE9oigxsLduDlpwk/cXS5xZroyY6cA6IMwrlUdjCuXX/zFx6gIrQcSA3OxDLQh8H10IOiUZmFsiERjQ7cDg5FlOAnDQywdzJ2NDC3zZ0esMIdtzC+PWXwYbusUTruoSYFhIe+L167RGvgyGPL062L3xnhfl3W/93belg3e+w53HXXtCY5ZETiJhWmiJAGhiSpDRREBEmD8DI+i6LNe9CqNSOjUuBW4279crXNtxHXrkCcHqmxl98iufXs8R/LKX7iE/j+0s3/+NVcJ5554xvLPXsBQ1AV3s0iNSwOy2s68DsVp2yxck4CAPSkYF/Ycx3IAUun/+jI4YyvvJ5+13FMvRmwPRIGvYtxjoLIRkduRYPxm1EUmRoQl9/yJczb3+EkfXEuzcO3GtDoJF8ugF3W0e8CyRw+7YNB7+00Q5iCgwFg7gPBAz5YkYiwwj0UDbm+/EB7wWZDAQL1K4lp/cYbXMZu/gsBOWCIpzMy6oBKWCpY/fcG/y594Exvrzdr8xVHLP/kGBm5stAetCTL3Jasgg+UqaBWCHrQffpqtXG8VzVQ5XxFILk3DPmHc4scPW++H7oWGIWb7/sUfLGpoPKMmf5GA0OQVpOKJQP0J+Cor+lXM3/DTDokzQsPMkK563MKYKYRHRHjLPlcXl2ORbY8LXhg0lsw4N8SgPfhdsw2wuUDw4tJBAiHek5jlc908c2SvD+JhImJLi33yjdHSkUsNTDitNnGzuqAHggQHVjdqDC3em4WaPuXaLH4OU8nImyseuXNzNm8IH+/GqBQG6OJaEXADaIT8clz+WC2hrhnpkak4PumzemoNKAyEyNd3p6yc515j0FLE6RnDZ4NbklOuYcAobrKHzZYWE8vP5L8q7yuf0auGgkXqIM/vtsyeIUQFzXqeZSzRtFK6CtVWugWVVQTalQA7nupPne6RnTJmToZONo7YGwnMzrjM0OqJRm6Z/Xud1+H/4Y99Gbw4DVUxVMOcOV787g/8Fsf/9oe2cHoUnT86fc52qcbuh3p7zemt+uAM19edNyRgrPnCW3cgZSC6WyNx51ou8SxcGbfC+IQVsIxz7q+/GxmO/vhJK54ahwCAwZyDKQbxGCMuIrkqnUaNGNAjVz7EC9hWEeSQX8i4AqdztnBqxI+fLj7qv13QoIaLgy+FFKQy23BtwvlW8f6q/Th6j3MrAztn8H4my8U6Q3HKAQZxpJiHuo++p8DC5NEi/R2Oxf/VEgPeefwH7p1ybhYut3Hr/tSvgVfCdn3qIzb47rtw73EsowxHObXYs9b6PcNqtabPREAE1kagjQY3D+jDnhzqaPbnQSlrIe4vgEoZI4LzCHMFCyfmoSKGoR3XstOVwYbj37LZ7lUBVgYLDpQ+cFWyuOrxbfSFL0nhfoKujAV5CJeZnAsMlMjo7hfmoJbHAE4hgcsNsdod5znQM/lMu/Kef5MjEz7ngMtUxlb2SxK/w3o+Uzi/rKJc6F12/OLJqNiKMWVAAYXyAAbvGIxYXfioGlryN20dWMbqM1H9vZgX3vg9sN6jDxm8zjfUm8W9Gww555AHhBXaxzgraLNi8Njg+1ZMEhBasdZUZhHYKAH0jz6DZqe4Wke40fyb4Hxah8cxY6Nx277f/ayXaBh7olDNO/fmWZulMSOimI7/3c99cPJZLgcAzpbTUde4xDKd38H4MTw/a8HewLqP7MdxCIqD9fNOS1zGCSCIpbb125F//U9x+2XLc5dOhMjOn79oNBTl+6mHEDYbM/9wBoIE4imQMdX1nqrLApy9438kUFSWK6p7bkRH+iuXj5gih3B/G71wsK4KGTUf+1vm64M6/0K9+i/mwweAv/jCRyD6zfe+DMU8fRMl/PbonRBQIIj4Xjk4J4ANAu0beu+7w1KIdpvo77GBW2/CcgciUWLPHRrD0vgyiYi4EJOYbUumJhcQWKGAy8pbrOQNcPYoIMyr0lA2kFXnnsrGXqmPetQJH0Tmw7pRaiyB5YjJvR512NhS33Du7ooHAYgCQldvtIdD5tD+aP366ResiO+KY9gg6ix3ScWsFyGdY0kw6cN6eHUQq91llf0QBo2wgMFuLg3rdHT+2HmvvrPDSp+32O/V3L73XxzY+IOy4P9WJd5zgrNirK3TaJApfWCPD5rxF04YNozGOj/W+mEbUsaMvwj1e7mEsPKWhEFitOxgfRiocQ8Bp/Xkjba46GWyVSMT7VMQp8BKMFKcj9wcbRbLCPisnC/5/bDQXJaiqyONKFOH91kGwkAf4hrQBTRdjWuwVZVTx+tuVTVc9xbKsA4pGxpVCHeYGUroG38aWHm+1wHcbyj9VQ1vrlsYHVAhwDrB1q58WGZRJ/VwGYPkX55Dd0Ir56vNAjbAn2pgSv0u+ftMoA6X4UyG66EQNNmOvC3Vsexsp/Qj50zGo7NBVVuOg89GUwH5kIXrR3GNTkxgyv1MkgN91nPzYQxiiKvw33/GGwX93bn3QHF82q3ZiaeMmS9xoRXxL3dZ63nvcYsPdFt2zy6sOUPVDiGhXgnzcFwFz1g+g1DSGDQrs2bm70saVF/D774M9f6aIxzWq3DXyYeqdE7MuUFd3203uwFg4vO/6YNmYXQC5c2DL70IyBQxGhFkqIzfFCToXeAzdNiMeKJ9CBNtBJYLsTWz/eigNb5Wn1FnWmn/Vb78Dh/FsNRAG4lYGqLMviF8AJdL96JgYKiEJVHf/IweFayPLoTLpxcG3TJdO4Jxyg0122QS2qQCAiCX8aDaGTQcGHe8iVZXDwEBLYAPIKockiADfyBfSotKayDAOsEOlHYefUA3DHLS4IeHd6NpgV0vO0VI57BCx0Win43mWz0feZaw5syOi2FgPW20yqu3zRkPGIRQpTKqWr0SjZ7Ight5haNz6LAwU+vZaKFZOtQhOmmEF0KzR974pHor9Sp7s+fDyHVM3bcc9h++3/Hpj/GXXfrhQ77nw+wTz1r+b3+EcQAahjfg64/WGU1Y5i3zgTtt4B991OJYvhhARMB6B/kphVN4xs6ajcFGYoxr7qu0K66lo02EA9SKUHBpjpSoaGkYo6Ln9luiQlXYzkNTw31m5i9esiluiwxNzOQjT/lguvDKm1a4BAECz1EJBqTe12OQZop10YMAyxK8zaqgQHsBPs/XHBNW4ZIHSwrd/OGEBKnMz5ggoJB1fEe/Jfb0WRz7enTdc8yNULtuuwn7UQxYGkJBN4RKCgidsqNu8wkIFekwhgAdqf792NWwD8M5fZjroEGIUUBAZw7BgI05SKXdF5ztQ+nqBBhIh9VCyTq1cy+Mu7i2C7VixQL46meu4RtK8AXMiLC+55I6ZmO+D8UaTl3LIQHcstIHB2GRjA7nqpbOa8lplWMAJY61WEZcq6eaOY5ZCn3QU5jlFo9ggxtwd4O6VYqwvo8gIEAwjs9gfXTHYGdY4K8FELWJbOP4F6BNJ9AGU8MD+AgeDhxI0EbL7Duw014C/RF3UqVg4DPFteS/lmP8AWOAIKisd+6zRGo7xkNa+C0b6PCcxIcRG2AQ/WJlQF5L9lt+DI0PIfiSpQfnwmSDwZHI0GffHLuxaZ0P2xj8y9UZOFmTDSYOi94LnNhxOAAaim6OqKoJcMEB37G/4nl8UxEsYl08ljwrQgGzoIEjkgv4RbDd1mPxoV70QbBdwXPoro+IseBROXkg74H5UhtZjwkS82ziBNdSJ9Y8RWRxUAGFiUkrjFzCe0iPkbhYhzJ6c/K2FWD9kMZIiR4E6MAgonQNAnw48TVdxvLnLviBJez9zoe7LqnSBFND6BQhfNBCmrte1iP5OijK6pVejwyX5eHCE+DE+xBhjTP9OiQaznmHyM7Il0XY29UhY2bh/SEHRKz8wsDMO1HvSOuUfwtn42putkVqbzijhOAwj2h/rAtuy8uJRZDBVr40POO4g8/8TT3uufIM5E+frax9RwLLalkzBgCvS0Elg7DFdSvDaher02cuTAGtL/OyTfM9NYZMnNG7ASC0fYhZwGNzZy/47+LkFCIgQuuVz9vCpTE/vIRIjiF4FaexBA33SEYuDOmpwlTZH4KCXFRPWCqAoM0UH8TAj0Gd31HLQa8X/mZKQuAKGGsBTKllcvrVJVQKAuDN42PVSRGFlA5ITatB4IOYGNwGyb1ePePS2uQgxApvBx/wpXfWgL/4cDBbzGTjg5UtW5O0D3F5f4MXfKt+A7eMpkqxfs0yBiMqBilpeHrrNjZ8qYBBVZhLg9r+YgHrWObFPFv4DQU8R0Ih1SfvGIQY2AaDURz9UVVzUF2mqOutVuqaGtMY7ETWkpZvlrSWc7bqmKo3CCd7vhuiF6RirFgtFAQy7mvAzYyCqWkXEGIQIijEer1gVs+1hTKW3vClPx+Udzl9cTsg5kPhyRO0ZRzEqYnw83A4hTwM+ny+GNKZ/T+FCKYAdhMJapQZ26LFYhX4DTTopfk0CNUbhZQZcgbVoLRoLYsGVG28DbpU22RLyd53c8MdufRfmfXU6wbdOMildDzU9VLfsQeJps31Kubq+dRzMK8z19ULjE/rWearXqSFv0A9lDgYof3Q1sQHKg449Wqbq6DxDYKq6vJVvl/yESc4lbX6JZ+36B80WOT2yWz+RWgJfGkHyzohl3k4HnhdRH2PPyLYY8G/43lVbUSlTbuw5xo9Moo0e4v9C7wvnBtkiWh/BwoP0B6wbjUeLGk9zSsgLCmm/hABERABERABEdhMAhCZlERABERABERABERgKQEJCEt56C8REAEREAEREAEQkICgZiACIiACIiACIrCCgASEFUj0gQiIgAiIgAiIgAQEtQEREAEREAEREIEVBCQgrECiD0RABERABERABCQgqA2IgAiIgAiIgAisICABYQUSfSACIiACIiACIiABQW1ABERABERABERgBQEJCCuQ6AMREAEREAEREAEJCGoDIiACIiACIiACKwhIQFiBRB+IgAiIgAiIgAhIQFAbEAEREAEREAERWEFAAsIKJPpABERABERABERAAoLagAiIgAiIgAiIwAoCEhBWINEHIiACIiACIiACEhDUBkRABERABERABFYQkICwAok+EAEREAEREAERkICgNiACIiACIiACIrCCgASEFUj0gQiIgAiIgAiIgAQEtQEREAEREAEREIEVBCQgrECiD0RABERABERABCQgqA2IgAiIgAiIgAisICABYQUSfSACIiACIiACIvD/A31CQbjwBnRMAAAAAElFTkSuQmCC;" parent="PBWLLHLStIqE05sqjgpN-50" vertex="1">
          <mxGeometry x="50" y="41.95" width="70" height="70" as="geometry" />
        </mxCell>
        <mxCell id="PBWLLHLStIqE05sqjgpN-48" value="" style="sketch=0;html=1;dashed=0;whitespace=wrap;fillColor=#2875E2;strokeColor=#ffffff;points=[[0.005,0.63,0],[0.1,0.2,0],[0.9,0.2,0],[0.5,0,0],[0.995,0.63,0],[0.72,0.99,0],[0.5,1,0],[0.28,0.99,0]];shape=mxgraph.kubernetes.icon;prIcon=svc;fontSize=11;fontColor=#000000;" parent="PBWLLHLStIqE05sqjgpN-50" vertex="1">
          <mxGeometry x="60" y="138.05" width="50" height="40" as="geometry" />
        </mxCell>
        <mxCell id="PBWLLHLStIqE05sqjgpN-30" value="" style="group" parent="PBWLLHLStIqE05sqjgpN-52" vertex="1" connectable="0">
          <mxGeometry x="111.81818181818181" width="75" height="63.902439024390254" as="geometry" />
        </mxCell>
        <mxCell id="PBWLLHLStIqE05sqjgpN-31" value="&lt;p&gt;&lt;font color=&quot;#ffffff&quot;&gt;&lt;span style=&quot;font-size: 11px&quot;&gt;NS&lt;/span&gt;&lt;/font&gt;&lt;/p&gt;" style="sketch=0;html=1;dashed=0;whitespace=wrap;fillColor=#2875E2;strokeColor=#ffffff;points=[[0.005,0.63,0],[0.1,0.2,0],[0.9,0.2,0],[0.5,0,0],[0.995,0.63,0],[0.72,0.99,0],[0.5,1,0],[0.28,0.99,0]];shape=mxgraph.kubernetes.icon;prIcon=ns" parent="PBWLLHLStIqE05sqjgpN-30" vertex="1">
          <mxGeometry width="43.63636363636364" height="43.902439024390254" as="geometry" />
        </mxCell>
        <mxCell id="PBWLLHLStIqE05sqjgpN-32" value="minio" style="text;html=1;resizable=0;autosize=1;align=center;verticalAlign=middle;points=[];fillColor=none;strokeColor=none;rounded=0;dashed=1;fontSize=11;fontColor=#666666;" parent="PBWLLHLStIqE05sqjgpN-30" vertex="1">
          <mxGeometry y="38.53243902439026" width="40" height="20" as="geometry" />
        </mxCell>
        <mxCell id="PBWLLHLStIqE05sqjgpN-6" value="" style="rounded=1;whiteSpace=wrap;html=1;dashed=1;strokeWidth=2;strokeColor=#0066CC;" parent="PBWLLHLStIqE05sqjgpN-27" vertex="1">
          <mxGeometry x="200.68" y="160" width="297.74" height="160" as="geometry" />
        </mxCell>
        <mxCell id="yWmJHB-9TVYLLPtVndA7-14" style="edgeStyle=orthogonalEdgeStyle;rounded=0;orthogonalLoop=1;jettySize=auto;html=1;exitX=0.306;exitY=0.999;exitDx=0;exitDy=0;exitPerimeter=0;fontSize=7;startArrow=none;startFill=0;entryX=0.489;entryY=1.064;entryDx=0;entryDy=0;entryPerimeter=0;endArrow=classic;endFill=1;" parent="PBWLLHLStIqE05sqjgpN-27" source="PBWLLHLStIqE05sqjgpN-29" target="yWmJHB-9TVYLLPtVndA7-3" edge="1">
          <mxGeometry relative="1" as="geometry">
            <Array as="points">
              <mxPoint x="815" y="360" />
              <mxPoint x="269" y="360" />
            </Array>
            <mxPoint x="290" y="290" as="targetPoint" />
          </mxGeometry>
        </mxCell>
        <mxCell id="PBWLLHLStIqE05sqjgpN-21" value="" style="group" parent="PBWLLHLStIqE05sqjgpN-27" vertex="1" connectable="0">
          <mxGeometry x="230.0036363636364" y="190.9990243902439" width="73.63545454545454" height="68.70536585365855" as="geometry" />
        </mxCell>
        <mxCell id="PBWLLHLStIqE05sqjgpN-10" value="" style="rounded=1;whiteSpace=wrap;html=1;fontSize=11;fontColor=#333333;strokeColor=#666666;strokeWidth=1;fillColor=#f5f5f5;" parent="PBWLLHLStIqE05sqjgpN-21" vertex="1">
          <mxGeometry x="7.272727272727273" y="10.975609756097562" width="65.45454545454545" height="54.87804878048781" as="geometry" />
        </mxCell>
        <mxCell id="yWmJHB-9TVYLLPtVndA7-6" value="" style="group" parent="PBWLLHLStIqE05sqjgpN-21" vertex="1" connectable="0">
          <mxGeometry x="7.275454545454546" y="20.12414634146341" width="45" height="46.581219512195126" as="geometry" />
        </mxCell>
        <mxCell id="PBWLLHLStIqE05sqjgpN-11" value="" style="sketch=0;html=1;dashed=0;whitespace=wrap;fillColor=#2875E2;strokeColor=#ffffff;points=[[0.005,0.63,0],[0.1,0.2,0],[0.9,0.2,0],[0.5,0,0],[0.995,0.63,0],[0.72,0.99,0],[0.5,1,0],[0.28,0.99,0]];shape=mxgraph.kubernetes.icon;prIcon=pod;fontSize=11;fontColor=#666666;" parent="yWmJHB-9TVYLLPtVndA7-6" vertex="1">
          <mxGeometry x="9.086363636363636" width="21.81818181818182" height="21.951219512195127" as="geometry" />
        </mxCell>
        <mxCell id="yWmJHB-9TVYLLPtVndA7-7" value="" style="group" parent="PBWLLHLStIqE05sqjgpN-21" vertex="1" connectable="0">
          <mxGeometry x="33.635454545454536" y="20.12414634146341" width="40" height="48.58121951219513" as="geometry" />
        </mxCell>
        <mxCell id="yWmJHB-9TVYLLPtVndA7-2" value="" style="sketch=0;html=1;dashed=0;whitespace=wrap;fillColor=#2875E2;strokeColor=#ffffff;points=[[0.005,0.63,0],[0.1,0.2,0],[0.9,0.2,0],[0.5,0,0],[0.995,0.63,0],[0.72,0.99,0],[0.5,1,0],[0.28,0.99,0]];shape=mxgraph.kubernetes.icon;prIcon=pod;fontSize=11;fontColor=#666666;" parent="yWmJHB-9TVYLLPtVndA7-7" vertex="1">
          <mxGeometry x="9.086363636363643" width="21.81818181818182" height="21.951219512195127" as="geometry" />
        </mxCell>
        <mxCell id="yWmJHB-9TVYLLPtVndA7-3" value="&lt;font color=&quot;#000000&quot; style=&quot;font-size: 7px&quot;&gt;Hydrus&lt;/font&gt;" style="text;html=1;resizable=0;autosize=1;align=center;verticalAlign=middle;points=[];fillColor=none;strokeColor=none;rounded=0;fontSize=9;fontColor=#666666;" parent="yWmJHB-9TVYLLPtVndA7-7" vertex="1">
          <mxGeometry x="-14" y="28.581219512195133" width="40" height="20" as="geometry" />
        </mxCell>
        <mxCell id="yWmJHB-9TVYLLPtVndA7-15" value="" style="sketch=0;html=1;dashed=0;whitespace=wrap;fillColor=#2875E2;strokeColor=#ffffff;points=[[0.005,0.63,0],[0.1,0.2,0],[0.9,0.2,0],[0.5,0,0],[0.995,0.63,0],[0.72,0.99,0],[0.5,1,0],[0.28,0.99,0]];shape=mxgraph.kubernetes.icon;prIcon=svc;fontSize=7;" parent="PBWLLHLStIqE05sqjgpN-21" vertex="1">
          <mxGeometry x="24.99636363636364" y="-22.4390243902439" width="30" height="50" as="geometry" />
        </mxCell>
        <mxCell id="PBWLLHLStIqE05sqjgpN-9" value="waterline" style="text;html=1;resizable=0;autosize=1;align=center;verticalAlign=middle;points=[];fillColor=none;strokeColor=none;rounded=0;dashed=1;fontSize=11;fontColor=#666666;" parent="PBWLLHLStIqE05sqjgpN-27" vertex="1">
          <mxGeometry x="200.67818181818183" y="181.00243902439027" width="60" height="20" as="geometry" />
        </mxCell>
        <mxCell id="yWmJHB-9TVYLLPtVndA7-13" style="edgeStyle=orthogonalEdgeStyle;rounded=0;orthogonalLoop=1;jettySize=auto;html=1;fontSize=7;startArrow=none;startFill=0;entryX=0.529;entryY=1.064;entryDx=0;entryDy=0;entryPerimeter=0;exitX=0.187;exitY=1.004;exitDx=0;exitDy=0;exitPerimeter=0;endArrow=classic;endFill=1;" parent="PBWLLHLStIqE05sqjgpN-27" source="PBWLLHLStIqE05sqjgpN-29" target="PBWLLHLStIqE05sqjgpN-20" edge="1">
          <mxGeometry relative="1" as="geometry">
            <mxPoint x="400" y="290" as="targetPoint" />
            <Array as="points">
              <mxPoint x="795" y="341" />
              <mxPoint x="431" y="341" />
            </Array>
            <mxPoint x="800" y="221" as="sourcePoint" />
          </mxGeometry>
        </mxCell>
        <mxCell id="1InEAcUCT8-Z-z6PYgBj-14" style="edgeStyle=orthogonalEdgeStyle;rounded=0;orthogonalLoop=1;jettySize=auto;html=1;exitX=1;exitY=0.75;exitDx=0;exitDy=0;entryX=0.552;entryY=0.223;entryDx=0;entryDy=0;entryPerimeter=0;" parent="PBWLLHLStIqE05sqjgpN-27" source="1InEAcUCT8-Z-z6PYgBj-2" target="yWmJHB-9TVYLLPtVndA7-16" edge="1">
          <mxGeometry relative="1" as="geometry" />
        </mxCell>
        <mxCell id="1InEAcUCT8-Z-z6PYgBj-15" value="" style="rounded=1;whiteSpace=wrap;html=1;dashed=1;strokeWidth=2;strokeColor=#0066CC;fillColor=none;" parent="PBWLLHLStIqE05sqjgpN-27" vertex="1">
          <mxGeometry x="202.74" y="30" width="267.26" height="110" as="geometry" />
        </mxCell>
        <mxCell id="AWByaZ8a-slFeuYb1Zzn-4" style="edgeStyle=orthogonalEdgeStyle;rounded=0;orthogonalLoop=1;jettySize=auto;html=1;entryX=0.5;entryY=0.229;entryDx=0;entryDy=0;entryPerimeter=0;startArrow=none;startFill=0;endArrow=classic;endFill=1;" edge="1" parent="PBWLLHLStIqE05sqjgpN-27" source="1InEAcUCT8-Z-z6PYgBj-2" target="yWmJHB-9TVYLLPtVndA7-15">
          <mxGeometry relative="1" as="geometry" />
        </mxCell>
        <mxCell id="1InEAcUCT8-Z-z6PYgBj-2" value="" style="rounded=1;whiteSpace=wrap;html=1;fontSize=11;fontColor=#333333;strokeColor=#666666;strokeWidth=1;fillColor=#f5f5f5;" parent="PBWLLHLStIqE05sqjgpN-27" vertex="1">
          <mxGeometry x="317.27727272727276" y="70.97463414634146" width="65.45454545454545" height="54.87804878048781" as="geometry" />
        </mxCell>
        <mxCell id="1InEAcUCT8-Z-z6PYgBj-3" value="" style="sketch=0;html=1;dashed=0;whitespace=wrap;fillColor=#2875E2;strokeColor=#ffffff;points=[[0.005,0.63,0],[0.1,0.2,0],[0.9,0.2,0],[0.5,0,0],[0.995,0.63,0],[0.72,0.99,0],[0.5,1,0],[0.28,0.99,0]];shape=mxgraph.kubernetes.icon;prIcon=pod;fontSize=11;fontColor=#666666;" parent="PBWLLHLStIqE05sqjgpN-27" vertex="1">
          <mxGeometry x="352.73636363636365" y="79.44317073170731" width="21.81818181818182" height="21.951219512195127" as="geometry" />
        </mxCell>
        <mxCell id="1InEAcUCT8-Z-z6PYgBj-5" value="" style="sketch=0;html=1;dashed=0;whitespace=wrap;fillColor=#2875E2;strokeColor=#ffffff;points=[[0.005,0.63,0],[0.1,0.2,0],[0.9,0.2,0],[0.5,0,0],[0.995,0.63,0],[0.72,0.99,0],[0.5,1,0],[0.28,0.99,0]];shape=mxgraph.kubernetes.icon;prIcon=pod;fontSize=11;fontColor=#666666;" parent="PBWLLHLStIqE05sqjgpN-27" vertex="1">
          <mxGeometry x="326.8263636363637" y="79.44317073170731" width="21.81818181818182" height="21.951219512195127" as="geometry" />
        </mxCell>
        <mxCell id="1InEAcUCT8-Z-z6PYgBj-16" value="&lt;p&gt;&lt;font color=&quot;#ffffff&quot;&gt;&lt;span style=&quot;font-size: 11px&quot;&gt;NS&lt;/span&gt;&lt;/font&gt;&lt;/p&gt;" style="sketch=0;html=1;dashed=0;whitespace=wrap;fillColor=#2875E2;strokeColor=#ffffff;points=[[0.005,0.63,0],[0.1,0.2,0],[0.9,0.2,0],[0.5,0,0],[0.995,0.63,0],[0.72,0.99,0],[0.5,1,0],[0.28,0.99,0]];shape=mxgraph.kubernetes.icon;prIcon=ns" parent="PBWLLHLStIqE05sqjgpN-27" vertex="1">
          <mxGeometry x="219.99818181818173" y="10" width="43.63636363636364" height="43.902439024390254" as="geometry" />
        </mxCell>
        <mxCell id="1InEAcUCT8-Z-z6PYgBj-6" value="&lt;font color=&quot;#000000&quot; style=&quot;font-size: 7px&quot;&gt;Orchestration&lt;/font&gt;" style="text;html=1;resizable=0;autosize=1;align=center;verticalAlign=middle;points=[];fillColor=none;strokeColor=none;rounded=0;fontSize=9;fontColor=#666666;" parent="PBWLLHLStIqE05sqjgpN-27" vertex="1">
          <mxGeometry x="319.5463636363637" y="107.56439024390244" width="60" height="20" as="geometry" />
        </mxCell>
        <mxCell id="1InEAcUCT8-Z-z6PYgBj-17" value="system" style="text;html=1;resizable=0;autosize=1;align=center;verticalAlign=middle;points=[];fillColor=none;strokeColor=none;rounded=0;dashed=1;fontSize=11;fontColor=#666666;" parent="PBWLLHLStIqE05sqjgpN-27" vertex="1">
          <mxGeometry x="216.8181818181818" y="50.00243902439027" width="50" height="20" as="geometry" />
        </mxCell>
        <mxCell id="1InEAcUCT8-Z-z6PYgBj-18" value="" style="rounded=1;whiteSpace=wrap;html=1;dashed=1;strokeWidth=2;strokeColor=#0066CC;fillColor=none;" parent="PBWLLHLStIqE05sqjgpN-27" vertex="1">
          <mxGeometry x="480" y="30" width="270" height="110" as="geometry" />
        </mxCell>
        <mxCell id="PBWLLHLStIqE05sqjgpN-7" value="&lt;p&gt;&lt;font color=&quot;#ffffff&quot;&gt;&lt;span style=&quot;font-size: 11px&quot;&gt;NS&lt;/span&gt;&lt;/font&gt;&lt;/p&gt;" style="sketch=0;html=1;dashed=0;whitespace=wrap;fillColor=#2875E2;strokeColor=#ffffff;points=[[0.005,0.63,0],[0.1,0.2,0],[0.9,0.2,0],[0.5,0,0],[0.995,0.63,0],[0.72,0.99,0],[0.5,1,0],[0.28,0.99,0]];shape=mxgraph.kubernetes.icon;prIcon=ns" parent="PBWLLHLStIqE05sqjgpN-27" vertex="1">
          <mxGeometry x="208.85818181818178" y="140" width="43.63636363636364" height="43.902439024390254" as="geometry" />
        </mxCell>
        <mxCell id="PBWLLHLStIqE05sqjgpN-22" value="" style="group" parent="PBWLLHLStIqE05sqjgpN-27" vertex="1" connectable="0">
          <mxGeometry x="390.0045454545455" y="231.42902439024394" width="74.54181818181819" height="67.56536585365853" as="geometry" />
        </mxCell>
        <mxCell id="PBWLLHLStIqE05sqjgpN-16" value="" style="rounded=1;whiteSpace=wrap;html=1;fontSize=11;fontColor=#333333;strokeColor=#666666;strokeWidth=1;fillColor=#f5f5f5;" parent="PBWLLHLStIqE05sqjgpN-22" vertex="1">
          <mxGeometry x="7.272727272727273" y="10.975609756097562" width="65.45454545454545" height="54.87804878048781" as="geometry" />
        </mxCell>
        <mxCell id="yWmJHB-9TVYLLPtVndA7-4" value="" style="sketch=0;html=1;dashed=0;whitespace=wrap;fillColor=#2875E2;strokeColor=#ffffff;points=[[0.005,0.63,0],[0.1,0.2,0],[0.9,0.2,0],[0.5,0,0],[0.995,0.63,0],[0.72,0.99,0],[0.5,1,0],[0.28,0.99,0]];shape=mxgraph.kubernetes.icon;prIcon=pod;fontSize=11;fontColor=#666666;" parent="PBWLLHLStIqE05sqjgpN-22" vertex="1">
          <mxGeometry x="42.73181818181814" y="19.44414634146341" width="21.81818181818182" height="21.951219512195127" as="geometry" />
        </mxCell>
        <mxCell id="PBWLLHLStIqE05sqjgpN-18" value="" style="group" parent="PBWLLHLStIqE05sqjgpN-22" vertex="1" connectable="0">
          <mxGeometry x="13.185454545454547" y="19.444146341463416" width="61.35636363636364" height="48.121219512195125" as="geometry" />
        </mxCell>
        <mxCell id="PBWLLHLStIqE05sqjgpN-19" value="" style="sketch=0;html=1;dashed=0;whitespace=wrap;fillColor=#2875E2;strokeColor=#ffffff;points=[[0.005,0.63,0],[0.1,0.2,0],[0.9,0.2,0],[0.5,0,0],[0.995,0.63,0],[0.72,0.99,0],[0.5,1,0],[0.28,0.99,0]];shape=mxgraph.kubernetes.icon;prIcon=pod;fontSize=11;fontColor=#666666;" parent="PBWLLHLStIqE05sqjgpN-18" vertex="1">
          <mxGeometry x="3.6363636363636367" width="21.81818181818182" height="21.951219512195127" as="geometry" />
        </mxCell>
        <mxCell id="PBWLLHLStIqE05sqjgpN-20" value="&lt;font color=&quot;#000000&quot; style=&quot;font-size: 7px&quot;&gt;Frontend&lt;/font&gt;" style="text;html=1;resizable=0;autosize=1;align=center;verticalAlign=middle;points=[];fillColor=none;strokeColor=none;rounded=0;fontSize=9;fontColor=#666666;" parent="PBWLLHLStIqE05sqjgpN-18" vertex="1">
          <mxGeometry x="6.3563636363636355" y="28.121219512195125" width="40" height="20" as="geometry" />
        </mxCell>
        <mxCell id="yWmJHB-9TVYLLPtVndA7-16" value="" style="sketch=0;html=1;dashed=0;whitespace=wrap;fillColor=#2875E2;strokeColor=#ffffff;points=[[0.005,0.63,0],[0.1,0.2,0],[0.9,0.2,0],[0.5,0,0],[0.995,0.63,0],[0.72,0.99,0],[0.5,1,0],[0.28,0.99,0]];shape=mxgraph.kubernetes.icon;prIcon=svc;fontSize=7;" parent="PBWLLHLStIqE05sqjgpN-22" vertex="1">
          <mxGeometry x="24.99545454545455" y="-22.4390243902439" width="30" height="50" as="geometry" />
        </mxCell>
        <mxCell id="AWByaZ8a-slFeuYb1Zzn-6" style="edgeStyle=orthogonalEdgeStyle;rounded=0;orthogonalLoop=1;jettySize=auto;html=1;startArrow=classic;startFill=1;endArrow=classic;endFill=1;" edge="1" parent="PBWLLHLStIqE05sqjgpN-27" source="AWByaZ8a-slFeuYb1Zzn-2" target="yWmJHB-9TVYLLPtVndA7-3">
          <mxGeometry relative="1" as="geometry">
            <Array as="points">
              <mxPoint x="280" y="294" />
            </Array>
          </mxGeometry>
        </mxCell>
        <mxCell id="AWByaZ8a-slFeuYb1Zzn-2" value="" style="sketch=0;html=1;dashed=0;whitespace=wrap;fillColor=#2875E2;strokeColor=#ffffff;points=[[0.005,0.63,0],[0.1,0.2,0],[0.9,0.2,0],[0.5,0,0],[0.995,0.63,0],[0.72,0.99,0],[0.5,1,0],[0.28,0.99,0]];shape=mxgraph.kubernetes.icon;prIcon=vol" vertex="1" parent="PBWLLHLStIqE05sqjgpN-27">
          <mxGeometry x="291.83" y="277.76" width="35" height="33" as="geometry" />
        </mxCell>
        <mxCell id="PBWLLHLStIqE05sqjgpN-3" value="" style="sketch=0;aspect=fixed;html=1;points=[];align=center;image;fontSize=12;image=img/lib/mscae/Kubernetes.svg;" parent="1" vertex="1">
          <mxGeometry x="190" y="20" width="50" height="48" as="geometry" />
        </mxCell>
        <mxCell id="1InEAcUCT8-Z-z6PYgBj-19" value="&lt;p&gt;&lt;font color=&quot;#ffffff&quot;&gt;&lt;span style=&quot;font-size: 11px&quot;&gt;NS&lt;/span&gt;&lt;/font&gt;&lt;/p&gt;" style="sketch=0;html=1;dashed=0;whitespace=wrap;fillColor=#2875E2;strokeColor=#ffffff;points=[[0.005,0.63,0],[0.1,0.2,0],[0.9,0.2,0],[0.5,0,0],[0.995,0.63,0],[0.72,0.99,0],[0.5,1,0],[0.28,0.99,0]];shape=mxgraph.kubernetes.icon;prIcon=ns" parent="1" vertex="1">
          <mxGeometry x="739.9981818181817" y="60" width="43.63636363636364" height="43.902439024390254" as="geometry" />
        </mxCell>
        <mxCell id="1InEAcUCT8-Z-z6PYgBj-20" value="data" style="text;html=1;resizable=0;autosize=1;align=center;verticalAlign=middle;points=[];fillColor=none;strokeColor=none;rounded=0;dashed=1;fontSize=11;fontColor=#666666;" parent="1" vertex="1">
          <mxGeometry x="741.8181818181818" y="98.53243902439027" width="40" height="20" as="geometry" />
        </mxCell>
        <mxCell id="1InEAcUCT8-Z-z6PYgBj-31" value="" style="group" parent="1" vertex="1" connectable="0">
          <mxGeometry x="530.0045454545455" y="118.52902439024393" width="74.54181818181819" height="67.56536585365853" as="geometry" />
        </mxCell>
        <mxCell id="1InEAcUCT8-Z-z6PYgBj-32" value="" style="rounded=1;whiteSpace=wrap;html=1;fontSize=11;fontColor=#333333;strokeColor=#666666;strokeWidth=1;fillColor=#f5f5f5;" parent="1InEAcUCT8-Z-z6PYgBj-31" vertex="1">
          <mxGeometry x="7.272727272727273" y="10.975609756097562" width="65.45454545454545" height="54.87804878048781" as="geometry" />
        </mxCell>
        <mxCell id="1InEAcUCT8-Z-z6PYgBj-33" value="" style="sketch=0;html=1;dashed=0;whitespace=wrap;fillColor=#2875E2;strokeColor=#ffffff;points=[[0.005,0.63,0],[0.1,0.2,0],[0.9,0.2,0],[0.5,0,0],[0.995,0.63,0],[0.72,0.99,0],[0.5,1,0],[0.28,0.99,0]];shape=mxgraph.kubernetes.icon;prIcon=pod;fontSize=11;fontColor=#666666;" parent="1InEAcUCT8-Z-z6PYgBj-31" vertex="1">
          <mxGeometry x="42.73181818181814" y="19.44414634146341" width="21.81818181818182" height="21.951219512195127" as="geometry" />
        </mxCell>
        <mxCell id="1InEAcUCT8-Z-z6PYgBj-34" value="" style="group" parent="1InEAcUCT8-Z-z6PYgBj-31" vertex="1" connectable="0">
          <mxGeometry x="13.185454545454547" y="19.444146341463416" width="61.35636363636364" height="48.121219512195125" as="geometry" />
        </mxCell>
        <mxCell id="1InEAcUCT8-Z-z6PYgBj-35" value="" style="sketch=0;html=1;dashed=0;whitespace=wrap;fillColor=#2875E2;strokeColor=#ffffff;points=[[0.005,0.63,0],[0.1,0.2,0],[0.9,0.2,0],[0.5,0,0],[0.995,0.63,0],[0.72,0.99,0],[0.5,1,0],[0.28,0.99,0]];shape=mxgraph.kubernetes.icon;prIcon=pod;fontSize=11;fontColor=#666666;" parent="1InEAcUCT8-Z-z6PYgBj-34" vertex="1">
          <mxGeometry x="3.6363636363636367" width="21.81818181818182" height="21.951219512195127" as="geometry" />
        </mxCell>
        <mxCell id="1InEAcUCT8-Z-z6PYgBj-36" value="&lt;font color=&quot;#000000&quot;&gt;&lt;span style=&quot;font-size: 7px&quot;&gt;Metadata Service&lt;/span&gt;&lt;/font&gt;" style="text;html=1;resizable=0;autosize=1;align=center;verticalAlign=middle;points=[];fillColor=none;strokeColor=none;rounded=0;fontSize=9;fontColor=#666666;" parent="1InEAcUCT8-Z-z6PYgBj-34" vertex="1">
          <mxGeometry x="-8.643636363636364" y="28.121219512195125" width="70" height="20" as="geometry" />
        </mxCell>
        <mxCell id="1InEAcUCT8-Z-z6PYgBj-38" style="edgeStyle=orthogonalEdgeStyle;rounded=0;orthogonalLoop=1;jettySize=auto;html=1;exitX=1;exitY=0.5;exitDx=0;exitDy=0;entryX=0;entryY=0.5;entryDx=0;entryDy=0;" parent="1" source="1InEAcUCT8-Z-z6PYgBj-2" target="1InEAcUCT8-Z-z6PYgBj-32" edge="1">
          <mxGeometry relative="1" as="geometry">
            <Array as="points">
              <mxPoint x="413" y="157" />
            </Array>
          </mxGeometry>
        </mxCell>
        <mxCell id="1InEAcUCT8-Z-z6PYgBj-39" style="edgeStyle=orthogonalEdgeStyle;rounded=0;orthogonalLoop=1;jettySize=auto;html=1;entryX=0.006;entryY=0.877;entryDx=0;entryDy=0;entryPerimeter=0;" parent="1" source="1InEAcUCT8-Z-z6PYgBj-36" target="PBWLLHLStIqE05sqjgpN-29" edge="1">
          <mxGeometry relative="1" as="geometry">
            <Array as="points">
              <mxPoint x="569" y="250" />
              <mxPoint x="794" y="250" />
            </Array>
          </mxGeometry>
        </mxCell>
        <mxCell id="1InEAcUCT8-Z-z6PYgBj-40" value="" style="group" parent="1" vertex="1" connectable="0">
          <mxGeometry x="640.0045454545455" y="119.99902439024393" width="74.54181818181819" height="67.56536585365853" as="geometry" />
        </mxCell>
        <mxCell id="1InEAcUCT8-Z-z6PYgBj-41" value="" style="rounded=1;whiteSpace=wrap;html=1;fontSize=11;fontColor=#333333;strokeColor=#666666;strokeWidth=1;fillColor=#f5f5f5;" parent="1InEAcUCT8-Z-z6PYgBj-40" vertex="1">
          <mxGeometry x="7.272727272727273" y="10.975609756097562" width="65.45454545454545" height="54.87804878048781" as="geometry" />
        </mxCell>
        <mxCell id="1InEAcUCT8-Z-z6PYgBj-42" value="" style="sketch=0;html=1;dashed=0;whitespace=wrap;fillColor=#2875E2;strokeColor=#ffffff;points=[[0.005,0.63,0],[0.1,0.2,0],[0.9,0.2,0],[0.5,0,0],[0.995,0.63,0],[0.72,0.99,0],[0.5,1,0],[0.28,0.99,0]];shape=mxgraph.kubernetes.icon;prIcon=pod;fontSize=11;fontColor=#666666;" parent="1InEAcUCT8-Z-z6PYgBj-40" vertex="1">
          <mxGeometry x="42.73181818181814" y="19.44414634146341" width="21.81818181818182" height="21.951219512195127" as="geometry" />
        </mxCell>
        <mxCell id="1InEAcUCT8-Z-z6PYgBj-43" value="" style="group" parent="1InEAcUCT8-Z-z6PYgBj-40" vertex="1" connectable="0">
          <mxGeometry x="13.185454545454547" y="19.444146341463416" width="61.35636363636364" height="48.121219512195125" as="geometry" />
        </mxCell>
        <mxCell id="1InEAcUCT8-Z-z6PYgBj-44" value="" style="sketch=0;html=1;dashed=0;whitespace=wrap;fillColor=#2875E2;strokeColor=#ffffff;points=[[0.005,0.63,0],[0.1,0.2,0],[0.9,0.2,0],[0.5,0,0],[0.995,0.63,0],[0.72,0.99,0],[0.5,1,0],[0.28,0.99,0]];shape=mxgraph.kubernetes.icon;prIcon=pod;fontSize=11;fontColor=#666666;" parent="1InEAcUCT8-Z-z6PYgBj-43" vertex="1">
          <mxGeometry x="3.6363636363636367" width="21.81818181818182" height="21.951219512195127" as="geometry" />
        </mxCell>
        <mxCell id="1InEAcUCT8-Z-z6PYgBj-45" value="&lt;font color=&quot;#000000&quot;&gt;&lt;span style=&quot;font-size: 7px&quot;&gt;NoSQL DB&lt;/span&gt;&lt;/font&gt;" style="text;html=1;resizable=0;autosize=1;align=center;verticalAlign=middle;points=[];fillColor=none;strokeColor=none;rounded=0;fontSize=9;fontColor=#666666;" parent="1InEAcUCT8-Z-z6PYgBj-43" vertex="1">
          <mxGeometry x="1.3563636363636355" y="28.121219512195125" width="50" height="20" as="geometry" />
        </mxCell>
        <mxCell id="1InEAcUCT8-Z-z6PYgBj-49" style="edgeStyle=orthogonalEdgeStyle;rounded=0;orthogonalLoop=1;jettySize=auto;html=1;entryX=-0.021;entryY=0.479;entryDx=0;entryDy=0;entryPerimeter=0;" parent="1" source="1InEAcUCT8-Z-z6PYgBj-32" target="1InEAcUCT8-Z-z6PYgBj-41" edge="1">
          <mxGeometry relative="1" as="geometry" />
        </mxCell>
        <mxCell id="1InEAcUCT8-Z-z6PYgBj-52" value="" style="group" parent="1" vertex="1" connectable="0">
          <mxGeometry x="340.00363636363636" y="249.9990243902439" width="74.63545454545454" height="68.70536585365855" as="geometry" />
        </mxCell>
        <mxCell id="1InEAcUCT8-Z-z6PYgBj-53" value="" style="rounded=1;whiteSpace=wrap;html=1;fontSize=11;fontColor=#333333;strokeColor=#666666;strokeWidth=1;fillColor=#f5f5f5;" parent="1InEAcUCT8-Z-z6PYgBj-52" vertex="1">
          <mxGeometry x="7.272727272727273" y="10.975609756097562" width="65.45454545454545" height="54.87804878048781" as="geometry" />
        </mxCell>
        <mxCell id="1InEAcUCT8-Z-z6PYgBj-54" value="" style="group" parent="1InEAcUCT8-Z-z6PYgBj-52" vertex="1" connectable="0">
          <mxGeometry x="7.275454545454546" y="20.12414634146341" width="45" height="46.581219512195126" as="geometry" />
        </mxCell>
        <mxCell id="1InEAcUCT8-Z-z6PYgBj-55" value="" style="sketch=0;html=1;dashed=0;whitespace=wrap;fillColor=#2875E2;strokeColor=#ffffff;points=[[0.005,0.63,0],[0.1,0.2,0],[0.9,0.2,0],[0.5,0,0],[0.995,0.63,0],[0.72,0.99,0],[0.5,1,0],[0.28,0.99,0]];shape=mxgraph.kubernetes.icon;prIcon=pod;fontSize=11;fontColor=#666666;" parent="1InEAcUCT8-Z-z6PYgBj-54" vertex="1">
          <mxGeometry x="9.086363636363636" width="21.81818181818182" height="21.951219512195127" as="geometry" />
        </mxCell>
        <mxCell id="1InEAcUCT8-Z-z6PYgBj-56" value="" style="group" parent="1InEAcUCT8-Z-z6PYgBj-52" vertex="1" connectable="0">
          <mxGeometry x="33.635454545454536" y="20.12414634146341" width="41" height="48.58121951219513" as="geometry" />
        </mxCell>
        <mxCell id="1InEAcUCT8-Z-z6PYgBj-57" value="" style="sketch=0;html=1;dashed=0;whitespace=wrap;fillColor=#2875E2;strokeColor=#ffffff;points=[[0.005,0.63,0],[0.1,0.2,0],[0.9,0.2,0],[0.5,0,0],[0.995,0.63,0],[0.72,0.99,0],[0.5,1,0],[0.28,0.99,0]];shape=mxgraph.kubernetes.icon;prIcon=pod;fontSize=11;fontColor=#666666;" parent="1InEAcUCT8-Z-z6PYgBj-56" vertex="1">
          <mxGeometry x="9.086363636363643" width="21.81818181818182" height="21.951219512195127" as="geometry" />
        </mxCell>
        <mxCell id="1InEAcUCT8-Z-z6PYgBj-58" value="&lt;font color=&quot;#000000&quot;&gt;&lt;span style=&quot;font-size: 7px&quot;&gt;Modflow&lt;/span&gt;&lt;/font&gt;" style="text;html=1;resizable=0;autosize=1;align=center;verticalAlign=middle;points=[];fillColor=none;strokeColor=none;rounded=0;fontSize=9;fontColor=#666666;" parent="1InEAcUCT8-Z-z6PYgBj-56" vertex="1">
          <mxGeometry x="-14" y="28.581219512195133" width="40" height="20" as="geometry" />
        </mxCell>
        <mxCell id="1InEAcUCT8-Z-z6PYgBj-59" value="" style="sketch=0;html=1;dashed=0;whitespace=wrap;fillColor=#2875E2;strokeColor=#ffffff;points=[[0.005,0.63,0],[0.1,0.2,0],[0.9,0.2,0],[0.5,0,0],[0.995,0.63,0],[0.72,0.99,0],[0.5,1,0],[0.28,0.99,0]];shape=mxgraph.kubernetes.icon;prIcon=svc;fontSize=7;" parent="1InEAcUCT8-Z-z6PYgBj-52" vertex="1">
          <mxGeometry x="24.99636363636364" y="-22.4390243902439" width="30" height="50" as="geometry" />
        </mxCell>
        <mxCell id="1InEAcUCT8-Z-z6PYgBj-60" style="edgeStyle=orthogonalEdgeStyle;rounded=0;orthogonalLoop=1;jettySize=auto;html=1;entryX=0.5;entryY=0.249;entryDx=0;entryDy=0;entryPerimeter=0;" parent="1" source="1InEAcUCT8-Z-z6PYgBj-6" target="1InEAcUCT8-Z-z6PYgBj-59" edge="1">
          <mxGeometry relative="1" as="geometry" />
        </mxCell>
        <mxCell id="1InEAcUCT8-Z-z6PYgBj-62" style="edgeStyle=orthogonalEdgeStyle;rounded=0;orthogonalLoop=1;jettySize=auto;html=1;entryX=0.25;entryY=1;entryDx=0;entryDy=0;startArrow=none;startFill=0;" parent="1" source="1InEAcUCT8-Z-z6PYgBj-58" target="PBWLLHLStIqE05sqjgpN-29" edge="1">
          <mxGeometry relative="1" as="geometry">
            <Array as="points">
              <mxPoint x="380" y="410" />
              <mxPoint x="836" y="410" />
            </Array>
          </mxGeometry>
        </mxCell>
        <mxCell id="1InEAcUCT8-Z-z6PYgBj-63" style="edgeStyle=orthogonalEdgeStyle;rounded=0;orthogonalLoop=1;jettySize=auto;html=1;startArrow=classic;startFill=1;endArrow=classic;endFill=1;" parent="1" source="PBWLLHLStIqE05sqjgpN-16" target="1InEAcUCT8-Z-z6PYgBj-45" edge="1">
          <mxGeometry relative="1" as="geometry" />
        </mxCell>
        <mxCell id="AWByaZ8a-slFeuYb1Zzn-7" style="edgeStyle=orthogonalEdgeStyle;rounded=0;orthogonalLoop=1;jettySize=auto;html=1;startArrow=classic;startFill=1;endArrow=classic;endFill=1;" edge="1" parent="1" source="AWByaZ8a-slFeuYb1Zzn-2" target="1InEAcUCT8-Z-z6PYgBj-58">
          <mxGeometry relative="1" as="geometry">
            <mxPoint x="370" y="320" as="targetPoint" />
            <Array as="points">
              <mxPoint x="370" y="354" />
            </Array>
          </mxGeometry>
        </mxCell>
      </root>
    </mxGraphModel>
  </diagram>
</mxfile>
